G04 EAGLE Gerber RS-274X export*
G75*
%MOMM*%
%FSLAX34Y34*%
%LPD*%
%INBottom Copper*%
%IPPOS*%
%AMOC8*
5,1,8,0,0,1.08239X$1,22.5*%
G01*
%ADD10C,2.184400*%
%ADD11P,1.924489X8X112.500000*%
%ADD12C,1.320800*%
%ADD13P,1.429621X8X112.500000*%
%ADD14R,1.508000X1.508000*%
%ADD15R,1.408000X1.408000*%
%ADD16C,0.508000*%
%ADD17C,0.152400*%

G36*
X279235Y556264D02*
X279235Y556264D01*
X279269Y556262D01*
X279458Y556284D01*
X279649Y556301D01*
X279682Y556310D01*
X279716Y556314D01*
X279899Y556369D01*
X280083Y556419D01*
X280114Y556434D01*
X280147Y556444D01*
X280318Y556531D01*
X280490Y556613D01*
X280518Y556633D01*
X280549Y556648D01*
X280701Y556764D01*
X280856Y556875D01*
X280880Y556900D01*
X280907Y556920D01*
X281036Y557060D01*
X281170Y557197D01*
X281189Y557226D01*
X281213Y557252D01*
X281315Y557413D01*
X281422Y557570D01*
X281436Y557602D01*
X281454Y557631D01*
X281527Y557808D01*
X281604Y557982D01*
X281612Y558016D01*
X281625Y558048D01*
X281665Y558235D01*
X281711Y558420D01*
X281713Y558454D01*
X281720Y558488D01*
X281739Y558800D01*
X281739Y1152400D01*
X281736Y1152435D01*
X281738Y1152469D01*
X281716Y1152658D01*
X281699Y1152849D01*
X281690Y1152882D01*
X281686Y1152916D01*
X281631Y1153099D01*
X281581Y1153283D01*
X281566Y1153314D01*
X281556Y1153347D01*
X281469Y1153518D01*
X281387Y1153690D01*
X281367Y1153718D01*
X281352Y1153749D01*
X281236Y1153901D01*
X281125Y1154056D01*
X281100Y1154080D01*
X281080Y1154107D01*
X280940Y1154236D01*
X280803Y1154370D01*
X280774Y1154389D01*
X280748Y1154413D01*
X280587Y1154515D01*
X280430Y1154622D01*
X280398Y1154636D01*
X280369Y1154654D01*
X280192Y1154727D01*
X280018Y1154804D01*
X279984Y1154812D01*
X279952Y1154825D01*
X279765Y1154865D01*
X279580Y1154911D01*
X279546Y1154913D01*
X279512Y1154920D01*
X279200Y1154939D01*
X-12700Y1154939D01*
X-12735Y1154936D01*
X-12769Y1154938D01*
X-12958Y1154916D01*
X-13149Y1154899D01*
X-13182Y1154890D01*
X-13216Y1154886D01*
X-13399Y1154831D01*
X-13583Y1154781D01*
X-13614Y1154766D01*
X-13647Y1154756D01*
X-13818Y1154669D01*
X-13990Y1154587D01*
X-14018Y1154567D01*
X-14049Y1154552D01*
X-14201Y1154436D01*
X-14356Y1154325D01*
X-14380Y1154300D01*
X-14407Y1154280D01*
X-14536Y1154140D01*
X-14670Y1154003D01*
X-14689Y1153974D01*
X-14713Y1153948D01*
X-14815Y1153787D01*
X-14922Y1153630D01*
X-14936Y1153598D01*
X-14954Y1153569D01*
X-15027Y1153392D01*
X-15104Y1153218D01*
X-15112Y1153184D01*
X-15125Y1153152D01*
X-15166Y1152965D01*
X-15211Y1152780D01*
X-15213Y1152746D01*
X-15220Y1152712D01*
X-15239Y1152400D01*
X-15239Y558800D01*
X-15236Y558765D01*
X-15238Y558731D01*
X-15216Y558542D01*
X-15199Y558351D01*
X-15190Y558318D01*
X-15186Y558284D01*
X-15131Y558101D01*
X-15081Y557917D01*
X-15066Y557886D01*
X-15056Y557853D01*
X-14969Y557682D01*
X-14887Y557510D01*
X-14867Y557482D01*
X-14852Y557451D01*
X-14736Y557299D01*
X-14625Y557144D01*
X-14600Y557120D01*
X-14580Y557093D01*
X-14440Y556964D01*
X-14303Y556830D01*
X-14274Y556811D01*
X-14248Y556787D01*
X-14087Y556685D01*
X-13930Y556578D01*
X-13898Y556564D01*
X-13869Y556546D01*
X-13692Y556473D01*
X-13518Y556396D01*
X-13484Y556388D01*
X-13452Y556375D01*
X-13265Y556335D01*
X-13080Y556289D01*
X-13046Y556287D01*
X-13012Y556280D01*
X-12700Y556261D01*
X279200Y556261D01*
X279235Y556264D01*
G37*
%LPC*%
G36*
X129539Y674369D02*
X129539Y674369D01*
X129539Y685800D01*
X129539Y697231D01*
X131735Y697231D01*
X138623Y690343D01*
X138650Y690320D01*
X138672Y690294D01*
X138821Y690177D01*
X138968Y690054D01*
X138998Y690036D01*
X139026Y690015D01*
X139193Y689925D01*
X139359Y689830D01*
X139392Y689819D01*
X139422Y689802D01*
X139603Y689743D01*
X139783Y689679D01*
X139818Y689674D01*
X139851Y689663D01*
X140040Y689637D01*
X140228Y689606D01*
X140262Y689606D01*
X140297Y689602D01*
X140488Y689610D01*
X140678Y689612D01*
X140712Y689619D01*
X140747Y689620D01*
X140933Y689661D01*
X141120Y689698D01*
X141152Y689710D01*
X141186Y689718D01*
X141362Y689791D01*
X141540Y689860D01*
X141570Y689878D01*
X141602Y689891D01*
X141762Y689995D01*
X141925Y690094D01*
X141951Y690117D01*
X141980Y690136D01*
X142214Y690343D01*
X147592Y695720D01*
X147697Y695846D01*
X147809Y695967D01*
X147841Y696019D01*
X147880Y696066D01*
X147962Y696208D01*
X148050Y696347D01*
X148074Y696404D01*
X148104Y696456D01*
X148159Y696611D01*
X148221Y696764D01*
X148234Y696823D01*
X148255Y696881D01*
X148281Y697043D01*
X148316Y697204D01*
X148321Y697281D01*
X148328Y697325D01*
X148327Y697386D01*
X148335Y697516D01*
X148335Y1054413D01*
X148321Y1054576D01*
X148314Y1054741D01*
X148301Y1054800D01*
X148295Y1054861D01*
X148252Y1055020D01*
X148216Y1055180D01*
X148193Y1055237D01*
X148177Y1055295D01*
X148106Y1055444D01*
X148043Y1055596D01*
X148010Y1055647D01*
X147983Y1055702D01*
X147888Y1055836D01*
X147798Y1055974D01*
X147747Y1056032D01*
X147721Y1056068D01*
X147678Y1056111D01*
X147592Y1056208D01*
X103708Y1100092D01*
X103582Y1100197D01*
X103461Y1100309D01*
X103410Y1100341D01*
X103363Y1100380D01*
X103220Y1100462D01*
X103081Y1100550D01*
X103025Y1100574D01*
X102972Y1100604D01*
X102817Y1100659D01*
X102665Y1100721D01*
X102605Y1100734D01*
X102547Y1100755D01*
X102385Y1100781D01*
X102224Y1100816D01*
X102148Y1100821D01*
X102103Y1100828D01*
X102042Y1100827D01*
X101913Y1100835D01*
X100504Y1100835D01*
X100469Y1100832D01*
X100435Y1100834D01*
X100246Y1100812D01*
X100055Y1100795D01*
X100022Y1100786D01*
X99988Y1100782D01*
X99805Y1100727D01*
X99621Y1100677D01*
X99590Y1100662D01*
X99557Y1100652D01*
X99386Y1100565D01*
X99214Y1100483D01*
X99186Y1100463D01*
X99155Y1100448D01*
X99003Y1100332D01*
X98848Y1100221D01*
X98824Y1100196D01*
X98797Y1100176D01*
X98668Y1100036D01*
X98534Y1099899D01*
X98515Y1099870D01*
X98491Y1099844D01*
X98389Y1099683D01*
X98282Y1099526D01*
X98268Y1099494D01*
X98250Y1099465D01*
X98177Y1099288D01*
X98100Y1099114D01*
X98092Y1099080D01*
X98079Y1099048D01*
X98039Y1098861D01*
X97993Y1098676D01*
X97991Y1098642D01*
X97984Y1098608D01*
X97965Y1098296D01*
X97965Y1096728D01*
X97072Y1095835D01*
X80728Y1095835D01*
X79835Y1096728D01*
X79835Y1113072D01*
X80728Y1113965D01*
X97072Y1113965D01*
X97965Y1113072D01*
X97965Y1111504D01*
X97968Y1111469D01*
X97966Y1111435D01*
X97988Y1111246D01*
X98005Y1111055D01*
X98014Y1111022D01*
X98018Y1110988D01*
X98073Y1110805D01*
X98123Y1110621D01*
X98138Y1110590D01*
X98148Y1110557D01*
X98235Y1110386D01*
X98317Y1110214D01*
X98337Y1110186D01*
X98352Y1110155D01*
X98468Y1110003D01*
X98579Y1109848D01*
X98604Y1109824D01*
X98624Y1109797D01*
X98764Y1109668D01*
X98901Y1109534D01*
X98930Y1109515D01*
X98956Y1109491D01*
X99117Y1109389D01*
X99274Y1109282D01*
X99306Y1109268D01*
X99335Y1109250D01*
X99512Y1109177D01*
X99686Y1109100D01*
X99720Y1109092D01*
X99752Y1109079D01*
X99939Y1109039D01*
X100124Y1108993D01*
X100158Y1108991D01*
X100192Y1108984D01*
X100504Y1108965D01*
X105457Y1108965D01*
X106950Y1108346D01*
X155846Y1059450D01*
X156465Y1057957D01*
X156465Y697516D01*
X156479Y697352D01*
X156486Y697188D01*
X156499Y697128D01*
X156505Y697067D01*
X156548Y696908D01*
X156584Y696748D01*
X156607Y696692D01*
X156623Y696633D01*
X156694Y696484D01*
X156757Y696333D01*
X156790Y696281D01*
X156817Y696226D01*
X156912Y696093D01*
X157002Y695954D01*
X157053Y695897D01*
X157079Y695860D01*
X157122Y695818D01*
X157208Y695720D01*
X163304Y689624D01*
X163331Y689602D01*
X163354Y689576D01*
X163503Y689458D01*
X163650Y689335D01*
X163680Y689318D01*
X163707Y689297D01*
X163875Y689207D01*
X164041Y689112D01*
X164073Y689100D01*
X164104Y689084D01*
X164285Y689025D01*
X164465Y688961D01*
X164499Y688955D01*
X164532Y688945D01*
X164721Y688919D01*
X164909Y688888D01*
X164944Y688888D01*
X164978Y688883D01*
X165169Y688891D01*
X165360Y688894D01*
X165393Y688900D01*
X165428Y688902D01*
X165614Y688943D01*
X165802Y688979D01*
X165834Y688992D01*
X165868Y688999D01*
X166043Y689073D01*
X166222Y689142D01*
X166251Y689160D01*
X166283Y689173D01*
X166443Y689276D01*
X166606Y689375D01*
X166632Y689398D01*
X166661Y689417D01*
X166896Y689624D01*
X173500Y696228D01*
X173605Y696354D01*
X173717Y696475D01*
X173749Y696527D01*
X173788Y696574D01*
X173870Y696716D01*
X173958Y696855D01*
X173982Y696912D01*
X174012Y696965D01*
X174067Y697119D01*
X174129Y697272D01*
X174142Y697331D01*
X174163Y697389D01*
X174189Y697551D01*
X174224Y697712D01*
X174229Y697789D01*
X174236Y697833D01*
X174235Y697894D01*
X174243Y698024D01*
X174243Y1057957D01*
X174862Y1059450D01*
X223758Y1108346D01*
X225251Y1108965D01*
X229696Y1108965D01*
X229731Y1108968D01*
X229765Y1108966D01*
X229954Y1108988D01*
X230145Y1109005D01*
X230178Y1109014D01*
X230212Y1109018D01*
X230395Y1109073D01*
X230579Y1109123D01*
X230610Y1109138D01*
X230643Y1109148D01*
X230814Y1109235D01*
X230986Y1109317D01*
X231014Y1109337D01*
X231045Y1109352D01*
X231197Y1109468D01*
X231352Y1109579D01*
X231376Y1109604D01*
X231403Y1109624D01*
X231532Y1109764D01*
X231666Y1109901D01*
X231685Y1109930D01*
X231709Y1109956D01*
X231811Y1110117D01*
X231918Y1110274D01*
X231932Y1110306D01*
X231950Y1110335D01*
X232023Y1110512D01*
X232100Y1110686D01*
X232108Y1110720D01*
X232121Y1110752D01*
X232161Y1110939D01*
X232207Y1111124D01*
X232209Y1111158D01*
X232216Y1111192D01*
X232235Y1111504D01*
X232235Y1113072D01*
X233128Y1113965D01*
X249472Y1113965D01*
X250365Y1113072D01*
X250365Y1096728D01*
X249472Y1095835D01*
X233128Y1095835D01*
X232235Y1096728D01*
X232235Y1098296D01*
X232232Y1098331D01*
X232234Y1098365D01*
X232212Y1098554D01*
X232195Y1098745D01*
X232186Y1098778D01*
X232182Y1098812D01*
X232127Y1098995D01*
X232077Y1099179D01*
X232062Y1099210D01*
X232052Y1099243D01*
X231965Y1099414D01*
X231883Y1099586D01*
X231863Y1099614D01*
X231848Y1099645D01*
X231732Y1099797D01*
X231621Y1099952D01*
X231596Y1099976D01*
X231576Y1100003D01*
X231436Y1100132D01*
X231299Y1100266D01*
X231270Y1100285D01*
X231244Y1100309D01*
X231083Y1100411D01*
X230926Y1100518D01*
X230894Y1100532D01*
X230865Y1100550D01*
X230688Y1100623D01*
X230514Y1100700D01*
X230480Y1100708D01*
X230448Y1100721D01*
X230261Y1100761D01*
X230076Y1100807D01*
X230042Y1100809D01*
X230008Y1100816D01*
X229696Y1100835D01*
X228795Y1100835D01*
X228632Y1100821D01*
X228467Y1100814D01*
X228408Y1100801D01*
X228347Y1100795D01*
X228188Y1100752D01*
X228028Y1100716D01*
X227971Y1100693D01*
X227913Y1100677D01*
X227764Y1100606D01*
X227612Y1100543D01*
X227561Y1100510D01*
X227506Y1100483D01*
X227372Y1100388D01*
X227234Y1100298D01*
X227176Y1100247D01*
X227140Y1100221D01*
X227097Y1100178D01*
X227000Y1100092D01*
X183116Y1056208D01*
X183011Y1056082D01*
X182899Y1055961D01*
X182867Y1055910D01*
X182828Y1055863D01*
X182746Y1055720D01*
X182658Y1055581D01*
X182634Y1055525D01*
X182604Y1055472D01*
X182549Y1055317D01*
X182487Y1055165D01*
X182474Y1055105D01*
X182453Y1055047D01*
X182427Y1054885D01*
X182392Y1054724D01*
X182387Y1054648D01*
X182380Y1054603D01*
X182381Y1054542D01*
X182373Y1054413D01*
X182373Y697008D01*
X182387Y696844D01*
X182394Y696680D01*
X182407Y696620D01*
X182413Y696559D01*
X182456Y696400D01*
X182492Y696240D01*
X182515Y696184D01*
X182531Y696125D01*
X182602Y695977D01*
X182665Y695825D01*
X182698Y695773D01*
X182725Y695718D01*
X182820Y695585D01*
X182910Y695446D01*
X182961Y695389D01*
X182987Y695352D01*
X183030Y695310D01*
X183116Y695212D01*
X188704Y689624D01*
X188731Y689602D01*
X188754Y689576D01*
X188903Y689458D01*
X189050Y689335D01*
X189080Y689318D01*
X189107Y689297D01*
X189275Y689207D01*
X189441Y689112D01*
X189473Y689100D01*
X189504Y689084D01*
X189685Y689025D01*
X189865Y688961D01*
X189899Y688955D01*
X189932Y688945D01*
X190121Y688919D01*
X190309Y688888D01*
X190344Y688888D01*
X190378Y688883D01*
X190569Y688891D01*
X190760Y688894D01*
X190794Y688900D01*
X190828Y688902D01*
X191014Y688943D01*
X191202Y688979D01*
X191234Y688992D01*
X191268Y688999D01*
X191444Y689073D01*
X191622Y689142D01*
X191651Y689160D01*
X191683Y689173D01*
X191843Y689276D01*
X192006Y689375D01*
X192032Y689398D01*
X192061Y689417D01*
X192296Y689624D01*
X198392Y695720D01*
X198497Y695846D01*
X198609Y695967D01*
X198641Y696019D01*
X198680Y696066D01*
X198762Y696208D01*
X198850Y696347D01*
X198874Y696404D01*
X198904Y696456D01*
X198959Y696611D01*
X199021Y696764D01*
X199034Y696823D01*
X199055Y696881D01*
X199081Y697043D01*
X199116Y697204D01*
X199121Y697281D01*
X199128Y697325D01*
X199127Y697386D01*
X199135Y697516D01*
X199135Y721165D01*
X199121Y721328D01*
X199114Y721493D01*
X199101Y721552D01*
X199095Y721613D01*
X199052Y721772D01*
X199016Y721932D01*
X198993Y721989D01*
X198977Y722047D01*
X198906Y722196D01*
X198843Y722348D01*
X198810Y722399D01*
X198783Y722454D01*
X198688Y722588D01*
X198598Y722726D01*
X198547Y722784D01*
X198521Y722820D01*
X198478Y722863D01*
X198392Y722960D01*
X188070Y733282D01*
X187451Y734775D01*
X187451Y1043225D01*
X188070Y1044718D01*
X226298Y1082946D01*
X227791Y1083565D01*
X229696Y1083565D01*
X229731Y1083568D01*
X229765Y1083566D01*
X229954Y1083588D01*
X230145Y1083605D01*
X230178Y1083614D01*
X230212Y1083618D01*
X230395Y1083673D01*
X230579Y1083723D01*
X230610Y1083738D01*
X230643Y1083748D01*
X230814Y1083835D01*
X230986Y1083917D01*
X231014Y1083937D01*
X231045Y1083952D01*
X231197Y1084068D01*
X231352Y1084179D01*
X231376Y1084204D01*
X231403Y1084224D01*
X231532Y1084364D01*
X231666Y1084501D01*
X231685Y1084530D01*
X231709Y1084556D01*
X231811Y1084717D01*
X231918Y1084874D01*
X231932Y1084906D01*
X231950Y1084935D01*
X232023Y1085112D01*
X232100Y1085286D01*
X232108Y1085320D01*
X232121Y1085352D01*
X232161Y1085539D01*
X232207Y1085724D01*
X232209Y1085758D01*
X232216Y1085792D01*
X232235Y1086104D01*
X232235Y1087672D01*
X233128Y1088565D01*
X249472Y1088565D01*
X250365Y1087672D01*
X250365Y1071328D01*
X249472Y1070435D01*
X233128Y1070435D01*
X232228Y1071335D01*
X232224Y1071386D01*
X232222Y1071516D01*
X232204Y1071610D01*
X232195Y1071705D01*
X232161Y1071831D01*
X232136Y1071958D01*
X232102Y1072047D01*
X232077Y1072139D01*
X232021Y1072257D01*
X231974Y1072378D01*
X231924Y1072460D01*
X231883Y1072546D01*
X231808Y1072652D01*
X231740Y1072763D01*
X231677Y1072834D01*
X231621Y1072912D01*
X231528Y1073003D01*
X231442Y1073100D01*
X231367Y1073159D01*
X231299Y1073226D01*
X231191Y1073299D01*
X231089Y1073380D01*
X231005Y1073425D01*
X230926Y1073478D01*
X230807Y1073531D01*
X230692Y1073592D01*
X230601Y1073622D01*
X230514Y1073661D01*
X230387Y1073691D01*
X230264Y1073732D01*
X230169Y1073745D01*
X230076Y1073767D01*
X229947Y1073775D01*
X229818Y1073793D01*
X229722Y1073789D01*
X229627Y1073795D01*
X229498Y1073780D01*
X229368Y1073775D01*
X229275Y1073754D01*
X229180Y1073743D01*
X229055Y1073705D01*
X228928Y1073677D01*
X228840Y1073640D01*
X228749Y1073613D01*
X228633Y1073554D01*
X228513Y1073503D01*
X228432Y1073451D01*
X228347Y1073408D01*
X228244Y1073330D01*
X228135Y1073259D01*
X228037Y1073173D01*
X227989Y1073136D01*
X227958Y1073103D01*
X227900Y1073052D01*
X196324Y1041476D01*
X196219Y1041350D01*
X196107Y1041229D01*
X196075Y1041178D01*
X196036Y1041131D01*
X195954Y1040988D01*
X195866Y1040849D01*
X195842Y1040793D01*
X195812Y1040740D01*
X195757Y1040585D01*
X195695Y1040433D01*
X195682Y1040373D01*
X195661Y1040315D01*
X195635Y1040153D01*
X195600Y1039992D01*
X195595Y1039916D01*
X195588Y1039871D01*
X195589Y1039810D01*
X195581Y1039681D01*
X195581Y738319D01*
X195595Y738156D01*
X195602Y737991D01*
X195615Y737932D01*
X195621Y737871D01*
X195664Y737712D01*
X195700Y737552D01*
X195723Y737495D01*
X195739Y737437D01*
X195810Y737288D01*
X195873Y737136D01*
X195906Y737085D01*
X195933Y737030D01*
X196028Y736896D01*
X196118Y736758D01*
X196169Y736700D01*
X196195Y736664D01*
X196238Y736621D01*
X196324Y736524D01*
X206646Y726202D01*
X207265Y724709D01*
X207265Y697516D01*
X207279Y697352D01*
X207286Y697188D01*
X207299Y697128D01*
X207305Y697067D01*
X207348Y696908D01*
X207384Y696748D01*
X207407Y696692D01*
X207423Y696633D01*
X207494Y696484D01*
X207557Y696333D01*
X207590Y696281D01*
X207617Y696226D01*
X207712Y696093D01*
X207802Y695954D01*
X207853Y695897D01*
X207879Y695860D01*
X207922Y695818D01*
X208008Y695720D01*
X214104Y689624D01*
X214131Y689602D01*
X214154Y689576D01*
X214303Y689458D01*
X214450Y689335D01*
X214480Y689318D01*
X214507Y689297D01*
X214675Y689207D01*
X214841Y689112D01*
X214873Y689100D01*
X214904Y689084D01*
X215085Y689025D01*
X215265Y688961D01*
X215299Y688955D01*
X215332Y688945D01*
X215521Y688919D01*
X215709Y688888D01*
X215744Y688888D01*
X215778Y688883D01*
X215969Y688891D01*
X216160Y688894D01*
X216193Y688900D01*
X216228Y688902D01*
X216414Y688943D01*
X216602Y688979D01*
X216634Y688992D01*
X216668Y688999D01*
X216843Y689073D01*
X217022Y689142D01*
X217051Y689160D01*
X217083Y689173D01*
X217243Y689276D01*
X217406Y689375D01*
X217432Y689398D01*
X217461Y689417D01*
X217696Y689624D01*
X223792Y695720D01*
X223897Y695846D01*
X224009Y695967D01*
X224041Y696019D01*
X224080Y696066D01*
X224162Y696208D01*
X224250Y696347D01*
X224274Y696404D01*
X224304Y696457D01*
X224359Y696611D01*
X224421Y696764D01*
X224434Y696823D01*
X224455Y696881D01*
X224481Y697043D01*
X224516Y697204D01*
X224521Y697281D01*
X224528Y697325D01*
X224527Y697386D01*
X224535Y697516D01*
X224535Y721165D01*
X224521Y721328D01*
X224514Y721493D01*
X224501Y721552D01*
X224495Y721613D01*
X224452Y721772D01*
X224416Y721932D01*
X224393Y721989D01*
X224377Y722047D01*
X224306Y722196D01*
X224243Y722348D01*
X224210Y722399D01*
X224183Y722454D01*
X224088Y722588D01*
X223998Y722726D01*
X223947Y722784D01*
X223921Y722820D01*
X223878Y722863D01*
X223792Y722960D01*
X213955Y732797D01*
X212454Y734298D01*
X211835Y735791D01*
X211835Y1045257D01*
X212454Y1046750D01*
X213954Y1048251D01*
X213955Y1048251D01*
X221749Y1056045D01*
X223250Y1057546D01*
X224743Y1058165D01*
X229696Y1058165D01*
X229731Y1058168D01*
X229765Y1058166D01*
X229954Y1058188D01*
X230145Y1058205D01*
X230178Y1058214D01*
X230212Y1058218D01*
X230395Y1058273D01*
X230579Y1058323D01*
X230610Y1058338D01*
X230643Y1058348D01*
X230814Y1058435D01*
X230986Y1058517D01*
X231014Y1058537D01*
X231045Y1058552D01*
X231197Y1058668D01*
X231352Y1058779D01*
X231376Y1058804D01*
X231403Y1058824D01*
X231532Y1058964D01*
X231666Y1059101D01*
X231685Y1059130D01*
X231709Y1059156D01*
X231811Y1059317D01*
X231918Y1059474D01*
X231932Y1059506D01*
X231950Y1059535D01*
X232023Y1059712D01*
X232100Y1059886D01*
X232108Y1059920D01*
X232121Y1059952D01*
X232161Y1060139D01*
X232207Y1060324D01*
X232209Y1060358D01*
X232216Y1060392D01*
X232235Y1060704D01*
X232235Y1062272D01*
X233128Y1063165D01*
X249472Y1063165D01*
X250365Y1062272D01*
X250365Y1045928D01*
X249472Y1045035D01*
X233128Y1045035D01*
X232235Y1045928D01*
X232235Y1047496D01*
X232232Y1047531D01*
X232234Y1047565D01*
X232212Y1047754D01*
X232195Y1047945D01*
X232186Y1047978D01*
X232182Y1048012D01*
X232127Y1048195D01*
X232077Y1048379D01*
X232062Y1048410D01*
X232052Y1048443D01*
X231965Y1048614D01*
X231883Y1048786D01*
X231863Y1048814D01*
X231848Y1048845D01*
X231732Y1048997D01*
X231621Y1049152D01*
X231596Y1049176D01*
X231576Y1049203D01*
X231436Y1049332D01*
X231299Y1049466D01*
X231270Y1049485D01*
X231244Y1049509D01*
X231083Y1049611D01*
X230926Y1049718D01*
X230894Y1049732D01*
X230865Y1049750D01*
X230688Y1049823D01*
X230514Y1049900D01*
X230480Y1049908D01*
X230448Y1049921D01*
X230261Y1049961D01*
X230076Y1050007D01*
X230042Y1050009D01*
X230008Y1050016D01*
X229696Y1050035D01*
X228287Y1050035D01*
X228124Y1050021D01*
X227959Y1050014D01*
X227900Y1050001D01*
X227839Y1049995D01*
X227680Y1049952D01*
X227520Y1049916D01*
X227463Y1049893D01*
X227405Y1049877D01*
X227256Y1049806D01*
X227104Y1049743D01*
X227053Y1049710D01*
X226998Y1049683D01*
X226864Y1049588D01*
X226726Y1049498D01*
X226668Y1049447D01*
X226632Y1049421D01*
X226589Y1049378D01*
X226492Y1049292D01*
X220708Y1043508D01*
X220603Y1043382D01*
X220491Y1043261D01*
X220459Y1043210D01*
X220420Y1043163D01*
X220338Y1043020D01*
X220250Y1042881D01*
X220226Y1042825D01*
X220196Y1042772D01*
X220141Y1042617D01*
X220079Y1042465D01*
X220066Y1042405D01*
X220045Y1042348D01*
X220019Y1042185D01*
X219984Y1042024D01*
X219979Y1041948D01*
X219972Y1041903D01*
X219973Y1041842D01*
X219965Y1041713D01*
X219965Y739335D01*
X219979Y739172D01*
X219986Y739007D01*
X219999Y738948D01*
X220005Y738887D01*
X220048Y738728D01*
X220084Y738568D01*
X220107Y738511D01*
X220123Y738453D01*
X220194Y738304D01*
X220257Y738152D01*
X220290Y738101D01*
X220317Y738046D01*
X220412Y737912D01*
X220502Y737774D01*
X220553Y737716D01*
X220579Y737680D01*
X220622Y737637D01*
X220708Y737540D01*
X232046Y726202D01*
X232665Y724709D01*
X232665Y697516D01*
X232679Y697352D01*
X232686Y697188D01*
X232699Y697128D01*
X232705Y697067D01*
X232748Y696908D01*
X232784Y696748D01*
X232807Y696692D01*
X232823Y696633D01*
X232894Y696485D01*
X232957Y696333D01*
X232990Y696281D01*
X233017Y696226D01*
X233112Y696093D01*
X233202Y695954D01*
X233253Y695897D01*
X233279Y695860D01*
X233322Y695818D01*
X233408Y695720D01*
X239504Y689624D01*
X239531Y689602D01*
X239554Y689576D01*
X239703Y689458D01*
X239850Y689335D01*
X239880Y689318D01*
X239907Y689297D01*
X240075Y689207D01*
X240241Y689112D01*
X240273Y689100D01*
X240304Y689084D01*
X240485Y689025D01*
X240665Y688961D01*
X240699Y688955D01*
X240732Y688945D01*
X240921Y688919D01*
X241109Y688888D01*
X241144Y688888D01*
X241178Y688883D01*
X241369Y688891D01*
X241560Y688894D01*
X241594Y688900D01*
X241628Y688902D01*
X241814Y688943D01*
X242002Y688979D01*
X242034Y688992D01*
X242068Y688999D01*
X242243Y689073D01*
X242422Y689142D01*
X242451Y689160D01*
X242483Y689173D01*
X242643Y689276D01*
X242806Y689375D01*
X242832Y689398D01*
X242861Y689417D01*
X243096Y689624D01*
X249686Y696215D01*
X258314Y696215D01*
X264415Y690114D01*
X264415Y681486D01*
X258314Y675385D01*
X249686Y675385D01*
X243096Y681976D01*
X243069Y681998D01*
X243046Y682024D01*
X242897Y682142D01*
X242750Y682265D01*
X242720Y682282D01*
X242693Y682303D01*
X242525Y682393D01*
X242359Y682488D01*
X242327Y682500D01*
X242296Y682516D01*
X242115Y682575D01*
X241935Y682639D01*
X241901Y682645D01*
X241868Y682655D01*
X241679Y682681D01*
X241491Y682712D01*
X241456Y682712D01*
X241422Y682717D01*
X241231Y682709D01*
X241041Y682706D01*
X241006Y682700D01*
X240972Y682698D01*
X240786Y682657D01*
X240598Y682621D01*
X240566Y682608D01*
X240532Y682601D01*
X240356Y682527D01*
X240178Y682458D01*
X240149Y682440D01*
X240117Y682427D01*
X239957Y682324D01*
X239794Y682225D01*
X239768Y682202D01*
X239739Y682183D01*
X239504Y681976D01*
X232914Y675385D01*
X224286Y675385D01*
X217696Y681976D01*
X217669Y681998D01*
X217646Y682024D01*
X217497Y682142D01*
X217350Y682265D01*
X217320Y682282D01*
X217293Y682303D01*
X217125Y682393D01*
X216959Y682488D01*
X216927Y682500D01*
X216896Y682516D01*
X216715Y682575D01*
X216535Y682639D01*
X216501Y682645D01*
X216468Y682655D01*
X216279Y682681D01*
X216091Y682712D01*
X216056Y682712D01*
X216022Y682717D01*
X215831Y682709D01*
X215641Y682706D01*
X215606Y682700D01*
X215572Y682698D01*
X215386Y682657D01*
X215198Y682621D01*
X215166Y682608D01*
X215132Y682601D01*
X214956Y682527D01*
X214778Y682458D01*
X214749Y682440D01*
X214717Y682427D01*
X214557Y682324D01*
X214394Y682225D01*
X214368Y682202D01*
X214339Y682183D01*
X214104Y681976D01*
X207514Y675385D01*
X198886Y675385D01*
X192296Y681976D01*
X192269Y681998D01*
X192246Y682024D01*
X192097Y682142D01*
X191950Y682265D01*
X191920Y682282D01*
X191893Y682303D01*
X191725Y682393D01*
X191559Y682488D01*
X191527Y682500D01*
X191496Y682516D01*
X191315Y682575D01*
X191135Y682639D01*
X191101Y682645D01*
X191068Y682655D01*
X190879Y682681D01*
X190691Y682712D01*
X190656Y682712D01*
X190622Y682717D01*
X190431Y682709D01*
X190241Y682706D01*
X190206Y682700D01*
X190172Y682698D01*
X189986Y682657D01*
X189798Y682621D01*
X189766Y682608D01*
X189732Y682601D01*
X189556Y682527D01*
X189378Y682458D01*
X189349Y682440D01*
X189317Y682427D01*
X189157Y682324D01*
X188994Y682225D01*
X188968Y682202D01*
X188939Y682183D01*
X188704Y681976D01*
X182114Y675385D01*
X173486Y675385D01*
X166896Y681976D01*
X166869Y681998D01*
X166846Y682024D01*
X166697Y682142D01*
X166550Y682265D01*
X166520Y682282D01*
X166493Y682303D01*
X166325Y682393D01*
X166159Y682488D01*
X166127Y682500D01*
X166096Y682516D01*
X165915Y682575D01*
X165735Y682639D01*
X165701Y682645D01*
X165668Y682655D01*
X165479Y682681D01*
X165291Y682712D01*
X165256Y682712D01*
X165222Y682717D01*
X165031Y682709D01*
X164841Y682706D01*
X164806Y682700D01*
X164772Y682698D01*
X164586Y682657D01*
X164398Y682621D01*
X164366Y682608D01*
X164332Y682601D01*
X164156Y682527D01*
X163978Y682458D01*
X163949Y682440D01*
X163917Y682427D01*
X163757Y682324D01*
X163594Y682225D01*
X163568Y682202D01*
X163539Y682183D01*
X163304Y681976D01*
X156714Y675385D01*
X148086Y675385D01*
X142214Y681257D01*
X142187Y681280D01*
X142164Y681306D01*
X142015Y681424D01*
X141869Y681546D01*
X141839Y681564D01*
X141811Y681585D01*
X141643Y681675D01*
X141478Y681770D01*
X141445Y681781D01*
X141414Y681798D01*
X141233Y681857D01*
X141053Y681921D01*
X141019Y681926D01*
X140986Y681937D01*
X140797Y681963D01*
X140609Y681994D01*
X140575Y681994D01*
X140540Y681998D01*
X140349Y681990D01*
X140159Y681988D01*
X140125Y681981D01*
X140090Y681980D01*
X139904Y681939D01*
X139717Y681902D01*
X139685Y681890D01*
X139651Y681882D01*
X139475Y681809D01*
X139297Y681740D01*
X139267Y681722D01*
X139235Y681709D01*
X139075Y681605D01*
X138912Y681506D01*
X138886Y681483D01*
X138857Y681464D01*
X138623Y681257D01*
X131735Y674369D01*
X129539Y674369D01*
G37*
%LPD*%
%LPC*%
G36*
X122265Y674369D02*
X122265Y674369D01*
X115377Y681257D01*
X115350Y681280D01*
X115328Y681306D01*
X115178Y681424D01*
X115032Y681546D01*
X115002Y681564D01*
X114974Y681585D01*
X114807Y681675D01*
X114641Y681770D01*
X114608Y681781D01*
X114578Y681798D01*
X114397Y681857D01*
X114217Y681921D01*
X114182Y681926D01*
X114149Y681937D01*
X113960Y681963D01*
X113772Y681994D01*
X113738Y681994D01*
X113703Y681998D01*
X113512Y681990D01*
X113322Y681988D01*
X113288Y681981D01*
X113253Y681980D01*
X113067Y681939D01*
X112880Y681902D01*
X112848Y681890D01*
X112814Y681882D01*
X112638Y681809D01*
X112460Y681740D01*
X112430Y681722D01*
X112398Y681709D01*
X112239Y681605D01*
X112075Y681506D01*
X112049Y681483D01*
X112020Y681464D01*
X111786Y681257D01*
X105914Y675385D01*
X97286Y675385D01*
X90696Y681976D01*
X90669Y681998D01*
X90646Y682024D01*
X90497Y682142D01*
X90350Y682265D01*
X90320Y682282D01*
X90293Y682303D01*
X90125Y682393D01*
X89959Y682488D01*
X89927Y682500D01*
X89896Y682516D01*
X89715Y682575D01*
X89535Y682639D01*
X89501Y682645D01*
X89468Y682655D01*
X89279Y682681D01*
X89091Y682712D01*
X89056Y682712D01*
X89022Y682717D01*
X88831Y682709D01*
X88641Y682706D01*
X88606Y682700D01*
X88572Y682698D01*
X88386Y682657D01*
X88198Y682621D01*
X88166Y682608D01*
X88132Y682601D01*
X87956Y682527D01*
X87778Y682458D01*
X87749Y682440D01*
X87717Y682427D01*
X87557Y682324D01*
X87394Y682225D01*
X87368Y682202D01*
X87339Y682183D01*
X87104Y681976D01*
X80514Y675385D01*
X71886Y675385D01*
X65785Y681486D01*
X65785Y690114D01*
X71886Y696215D01*
X80514Y696215D01*
X87104Y689624D01*
X87131Y689602D01*
X87154Y689576D01*
X87303Y689458D01*
X87450Y689335D01*
X87480Y689318D01*
X87507Y689297D01*
X87675Y689207D01*
X87841Y689112D01*
X87873Y689100D01*
X87904Y689084D01*
X88085Y689025D01*
X88265Y688961D01*
X88299Y688955D01*
X88332Y688945D01*
X88521Y688919D01*
X88709Y688888D01*
X88744Y688888D01*
X88778Y688883D01*
X88969Y688891D01*
X89160Y688894D01*
X89194Y688900D01*
X89228Y688902D01*
X89414Y688943D01*
X89602Y688979D01*
X89634Y688992D01*
X89668Y688999D01*
X89843Y689073D01*
X90022Y689142D01*
X90051Y689160D01*
X90083Y689173D01*
X90243Y689276D01*
X90406Y689375D01*
X90432Y689398D01*
X90461Y689417D01*
X90696Y689624D01*
X96792Y695720D01*
X96897Y695846D01*
X97009Y695967D01*
X97041Y696019D01*
X97080Y696066D01*
X97162Y696208D01*
X97250Y696347D01*
X97274Y696404D01*
X97304Y696457D01*
X97359Y696611D01*
X97421Y696764D01*
X97434Y696823D01*
X97455Y696881D01*
X97481Y697043D01*
X97516Y697204D01*
X97521Y697281D01*
X97528Y697325D01*
X97527Y697386D01*
X97535Y697516D01*
X97535Y724709D01*
X98154Y726202D01*
X108476Y736524D01*
X108581Y736650D01*
X108693Y736771D01*
X108725Y736822D01*
X108764Y736869D01*
X108846Y737012D01*
X108934Y737151D01*
X108958Y737207D01*
X108988Y737260D01*
X109043Y737415D01*
X109105Y737567D01*
X109118Y737627D01*
X109139Y737685D01*
X109165Y737847D01*
X109200Y738008D01*
X109205Y738084D01*
X109212Y738129D01*
X109211Y738190D01*
X109219Y738319D01*
X109219Y1067621D01*
X109205Y1067784D01*
X109198Y1067949D01*
X109185Y1068008D01*
X109179Y1068069D01*
X109136Y1068228D01*
X109100Y1068388D01*
X109077Y1068445D01*
X109061Y1068503D01*
X108990Y1068652D01*
X108927Y1068804D01*
X108894Y1068855D01*
X108867Y1068910D01*
X108772Y1069044D01*
X108682Y1069182D01*
X108631Y1069240D01*
X108605Y1069276D01*
X108562Y1069319D01*
X108476Y1069416D01*
X103200Y1074692D01*
X103074Y1074797D01*
X102953Y1074909D01*
X102902Y1074941D01*
X102855Y1074980D01*
X102712Y1075062D01*
X102573Y1075150D01*
X102517Y1075174D01*
X102464Y1075204D01*
X102309Y1075259D01*
X102157Y1075321D01*
X102097Y1075334D01*
X102039Y1075355D01*
X101877Y1075381D01*
X101716Y1075416D01*
X101640Y1075421D01*
X101595Y1075428D01*
X101534Y1075427D01*
X101405Y1075435D01*
X100004Y1075435D01*
X99969Y1075432D01*
X99935Y1075434D01*
X99746Y1075412D01*
X99555Y1075395D01*
X99522Y1075386D01*
X99488Y1075382D01*
X99305Y1075327D01*
X99121Y1075277D01*
X99090Y1075262D01*
X99057Y1075252D01*
X98886Y1075165D01*
X98714Y1075083D01*
X98686Y1075063D01*
X98655Y1075048D01*
X98503Y1074932D01*
X98348Y1074821D01*
X98324Y1074796D01*
X98297Y1074776D01*
X98168Y1074636D01*
X98034Y1074499D01*
X98015Y1074470D01*
X97991Y1074444D01*
X97889Y1074283D01*
X97782Y1074126D01*
X97768Y1074094D01*
X97750Y1074065D01*
X97677Y1073888D01*
X97600Y1073714D01*
X97592Y1073680D01*
X97579Y1073648D01*
X97539Y1073461D01*
X97493Y1073276D01*
X97491Y1073242D01*
X97484Y1073208D01*
X97465Y1072896D01*
X97465Y1071828D01*
X96572Y1070935D01*
X81228Y1070935D01*
X80335Y1071828D01*
X80335Y1087172D01*
X81228Y1088065D01*
X96572Y1088065D01*
X97465Y1087172D01*
X97465Y1086104D01*
X97468Y1086069D01*
X97466Y1086035D01*
X97488Y1085846D01*
X97505Y1085655D01*
X97514Y1085622D01*
X97518Y1085588D01*
X97573Y1085405D01*
X97623Y1085221D01*
X97638Y1085190D01*
X97648Y1085157D01*
X97735Y1084986D01*
X97817Y1084814D01*
X97837Y1084786D01*
X97852Y1084755D01*
X97968Y1084603D01*
X98079Y1084448D01*
X98104Y1084424D01*
X98124Y1084397D01*
X98264Y1084268D01*
X98401Y1084134D01*
X98430Y1084115D01*
X98456Y1084091D01*
X98617Y1083989D01*
X98774Y1083882D01*
X98806Y1083868D01*
X98835Y1083850D01*
X99012Y1083777D01*
X99186Y1083700D01*
X99220Y1083692D01*
X99252Y1083679D01*
X99439Y1083639D01*
X99624Y1083593D01*
X99658Y1083591D01*
X99692Y1083584D01*
X100004Y1083565D01*
X104949Y1083565D01*
X106442Y1082946D01*
X116730Y1072658D01*
X117349Y1071165D01*
X117349Y734775D01*
X116730Y733282D01*
X106408Y722960D01*
X106303Y722834D01*
X106191Y722713D01*
X106159Y722662D01*
X106120Y722615D01*
X106038Y722472D01*
X105950Y722333D01*
X105926Y722277D01*
X105896Y722224D01*
X105841Y722069D01*
X105779Y721917D01*
X105766Y721857D01*
X105745Y721799D01*
X105719Y721637D01*
X105684Y721476D01*
X105679Y721400D01*
X105672Y721355D01*
X105673Y721294D01*
X105665Y721165D01*
X105665Y697516D01*
X105679Y697352D01*
X105686Y697188D01*
X105699Y697128D01*
X105705Y697067D01*
X105748Y696908D01*
X105784Y696748D01*
X105807Y696692D01*
X105823Y696633D01*
X105894Y696485D01*
X105957Y696333D01*
X105990Y696281D01*
X106017Y696226D01*
X106112Y696093D01*
X106202Y695954D01*
X106253Y695897D01*
X106279Y695860D01*
X106322Y695818D01*
X106408Y695720D01*
X111786Y690343D01*
X111813Y690320D01*
X111836Y690294D01*
X111985Y690176D01*
X112131Y690054D01*
X112161Y690036D01*
X112189Y690015D01*
X112357Y689925D01*
X112522Y689830D01*
X112555Y689819D01*
X112586Y689802D01*
X112767Y689743D01*
X112947Y689679D01*
X112981Y689674D01*
X113014Y689663D01*
X113203Y689637D01*
X113391Y689606D01*
X113425Y689606D01*
X113460Y689602D01*
X113651Y689610D01*
X113841Y689612D01*
X113875Y689619D01*
X113910Y689620D01*
X114096Y689661D01*
X114283Y689698D01*
X114315Y689710D01*
X114349Y689718D01*
X114525Y689791D01*
X114703Y689860D01*
X114733Y689878D01*
X114765Y689891D01*
X114925Y689995D01*
X115088Y690094D01*
X115114Y690117D01*
X115143Y690136D01*
X115377Y690343D01*
X122265Y697231D01*
X124461Y697231D01*
X124461Y685800D01*
X124461Y674369D01*
X122265Y674369D01*
G37*
%LPD*%
%LPC*%
G36*
X10224Y732553D02*
X10224Y732553D01*
X5649Y734448D01*
X2148Y737949D01*
X253Y742524D01*
X253Y747476D01*
X2148Y752051D01*
X5649Y755552D01*
X10224Y757447D01*
X15176Y757447D01*
X19750Y755552D01*
X23252Y752050D01*
X25147Y747476D01*
X25147Y742524D01*
X23252Y737950D01*
X19750Y734448D01*
X15176Y732553D01*
X10224Y732553D01*
G37*
%LPD*%
%LPC*%
G36*
X11083Y861567D02*
X11083Y861567D01*
X8095Y862805D01*
X5809Y865091D01*
X4571Y868079D01*
X4571Y884521D01*
X5809Y887509D01*
X8095Y889795D01*
X11083Y891033D01*
X14317Y891033D01*
X17305Y889795D01*
X19591Y887509D01*
X20829Y884521D01*
X20829Y868079D01*
X19591Y865091D01*
X17305Y862805D01*
X14317Y861567D01*
X11083Y861567D01*
G37*
%LPD*%
%LPC*%
G36*
X233128Y1019635D02*
X233128Y1019635D01*
X232235Y1020528D01*
X232235Y1036872D01*
X233128Y1037765D01*
X249472Y1037765D01*
X250365Y1036872D01*
X250365Y1020528D01*
X249472Y1019635D01*
X233128Y1019635D01*
G37*
%LPD*%
%LPC*%
G36*
X80728Y1045035D02*
X80728Y1045035D01*
X79835Y1045928D01*
X79835Y1062272D01*
X80728Y1063165D01*
X97072Y1063165D01*
X97965Y1062272D01*
X97965Y1045928D01*
X97072Y1045035D01*
X80728Y1045035D01*
G37*
%LPD*%
%LPC*%
G36*
X233128Y740235D02*
X233128Y740235D01*
X232235Y741128D01*
X232235Y757472D01*
X233128Y758365D01*
X249472Y758365D01*
X250365Y757472D01*
X250365Y741128D01*
X249472Y740235D01*
X233128Y740235D01*
G37*
%LPD*%
%LPC*%
G36*
X80728Y740235D02*
X80728Y740235D01*
X79835Y741128D01*
X79835Y757472D01*
X80728Y758365D01*
X97072Y758365D01*
X97965Y757472D01*
X97965Y741128D01*
X97072Y740235D01*
X80728Y740235D01*
G37*
%LPD*%
%LPC*%
G36*
X233128Y765635D02*
X233128Y765635D01*
X232235Y766528D01*
X232235Y782872D01*
X233128Y783765D01*
X249472Y783765D01*
X250365Y782872D01*
X250365Y766528D01*
X249472Y765635D01*
X233128Y765635D01*
G37*
%LPD*%
%LPC*%
G36*
X80728Y791035D02*
X80728Y791035D01*
X79835Y791928D01*
X79835Y808272D01*
X80728Y809165D01*
X97072Y809165D01*
X97965Y808272D01*
X97965Y791928D01*
X97072Y791035D01*
X80728Y791035D01*
G37*
%LPD*%
%LPC*%
G36*
X233128Y791035D02*
X233128Y791035D01*
X232235Y791928D01*
X232235Y808272D01*
X233128Y809165D01*
X249472Y809165D01*
X250365Y808272D01*
X250365Y791928D01*
X249472Y791035D01*
X233128Y791035D01*
G37*
%LPD*%
%LPC*%
G36*
X80728Y816435D02*
X80728Y816435D01*
X79835Y817328D01*
X79835Y833672D01*
X80728Y834565D01*
X97072Y834565D01*
X97965Y833672D01*
X97965Y817328D01*
X97072Y816435D01*
X80728Y816435D01*
G37*
%LPD*%
%LPC*%
G36*
X233128Y816435D02*
X233128Y816435D01*
X232235Y817328D01*
X232235Y833672D01*
X233128Y834565D01*
X249472Y834565D01*
X250365Y833672D01*
X250365Y817328D01*
X249472Y816435D01*
X233128Y816435D01*
G37*
%LPD*%
%LPC*%
G36*
X80728Y841835D02*
X80728Y841835D01*
X79835Y842728D01*
X79835Y859072D01*
X80728Y859965D01*
X97072Y859965D01*
X97965Y859072D01*
X97965Y842728D01*
X97072Y841835D01*
X80728Y841835D01*
G37*
%LPD*%
%LPC*%
G36*
X233128Y841835D02*
X233128Y841835D01*
X232235Y842728D01*
X232235Y859072D01*
X233128Y859965D01*
X249472Y859965D01*
X250365Y859072D01*
X250365Y842728D01*
X249472Y841835D01*
X233128Y841835D01*
G37*
%LPD*%
%LPC*%
G36*
X233128Y867235D02*
X233128Y867235D01*
X232235Y868128D01*
X232235Y884472D01*
X233128Y885365D01*
X249472Y885365D01*
X250365Y884472D01*
X250365Y868128D01*
X249472Y867235D01*
X233128Y867235D01*
G37*
%LPD*%
%LPC*%
G36*
X80728Y867235D02*
X80728Y867235D01*
X79835Y868128D01*
X79835Y884472D01*
X80728Y885365D01*
X97072Y885365D01*
X97965Y884472D01*
X97965Y868128D01*
X97072Y867235D01*
X80728Y867235D01*
G37*
%LPD*%
%LPC*%
G36*
X80728Y968835D02*
X80728Y968835D01*
X79835Y969728D01*
X79835Y986072D01*
X80728Y986965D01*
X97072Y986965D01*
X97965Y986072D01*
X97965Y969728D01*
X97072Y968835D01*
X80728Y968835D01*
G37*
%LPD*%
%LPC*%
G36*
X80728Y1019635D02*
X80728Y1019635D01*
X79835Y1020528D01*
X79835Y1036872D01*
X80728Y1037765D01*
X97072Y1037765D01*
X97965Y1036872D01*
X97965Y1020528D01*
X97072Y1019635D01*
X80728Y1019635D01*
G37*
%LPD*%
%LPC*%
G36*
X233128Y994235D02*
X233128Y994235D01*
X232235Y995128D01*
X232235Y1011472D01*
X233128Y1012365D01*
X249472Y1012365D01*
X250365Y1011472D01*
X250365Y995128D01*
X249472Y994235D01*
X233128Y994235D01*
G37*
%LPD*%
%LPC*%
G36*
X80728Y994235D02*
X80728Y994235D01*
X79835Y995128D01*
X79835Y1011472D01*
X80728Y1012365D01*
X97072Y1012365D01*
X97965Y1011472D01*
X97965Y995128D01*
X97072Y994235D01*
X80728Y994235D01*
G37*
%LPD*%
%LPC*%
G36*
X233128Y968835D02*
X233128Y968835D01*
X232235Y969728D01*
X232235Y986072D01*
X233128Y986965D01*
X249472Y986965D01*
X250365Y986072D01*
X250365Y969728D01*
X249472Y968835D01*
X233128Y968835D01*
G37*
%LPD*%
%LPC*%
G36*
X80728Y943435D02*
X80728Y943435D01*
X79835Y944328D01*
X79835Y960672D01*
X80728Y961565D01*
X97072Y961565D01*
X97965Y960672D01*
X97965Y944328D01*
X97072Y943435D01*
X80728Y943435D01*
G37*
%LPD*%
%LPC*%
G36*
X233128Y943435D02*
X233128Y943435D01*
X232235Y944328D01*
X232235Y960672D01*
X233128Y961565D01*
X249472Y961565D01*
X250365Y960672D01*
X250365Y944328D01*
X249472Y943435D01*
X233128Y943435D01*
G37*
%LPD*%
%LPC*%
G36*
X80728Y918035D02*
X80728Y918035D01*
X79835Y918928D01*
X79835Y935272D01*
X80728Y936165D01*
X97072Y936165D01*
X97965Y935272D01*
X97965Y918928D01*
X97072Y918035D01*
X80728Y918035D01*
G37*
%LPD*%
%LPC*%
G36*
X233128Y918035D02*
X233128Y918035D01*
X232235Y918928D01*
X232235Y935272D01*
X233128Y936165D01*
X249472Y936165D01*
X250365Y935272D01*
X250365Y918928D01*
X249472Y918035D01*
X233128Y918035D01*
G37*
%LPD*%
%LPC*%
G36*
X233128Y892635D02*
X233128Y892635D01*
X232235Y893528D01*
X232235Y909872D01*
X233128Y910765D01*
X249472Y910765D01*
X250365Y909872D01*
X250365Y893528D01*
X249472Y892635D01*
X233128Y892635D01*
G37*
%LPD*%
%LPC*%
G36*
X80728Y892635D02*
X80728Y892635D01*
X79835Y893528D01*
X79835Y909872D01*
X80728Y910765D01*
X97072Y910765D01*
X97965Y909872D01*
X97965Y893528D01*
X97072Y892635D01*
X80728Y892635D01*
G37*
%LPD*%
%LPC*%
G36*
X22033Y969771D02*
X22033Y969771D01*
X17271Y974533D01*
X17271Y981267D01*
X22033Y986029D01*
X28767Y986029D01*
X33529Y981267D01*
X33529Y974533D01*
X28767Y969771D01*
X22033Y969771D01*
G37*
%LPD*%
%LPC*%
G36*
X22033Y995171D02*
X22033Y995171D01*
X17271Y999933D01*
X17271Y1006667D01*
X22033Y1011429D01*
X28767Y1011429D01*
X33529Y1006667D01*
X33529Y999933D01*
X28767Y995171D01*
X22033Y995171D01*
G37*
%LPD*%
%LPC*%
G36*
X15239Y782539D02*
X15239Y782539D01*
X15239Y793228D01*
X15853Y793131D01*
X17868Y792476D01*
X19756Y791514D01*
X21470Y790269D01*
X22969Y788770D01*
X24214Y787056D01*
X25176Y785168D01*
X25831Y783153D01*
X25928Y782539D01*
X15239Y782539D01*
G37*
%LPD*%
%LPC*%
G36*
X15239Y777461D02*
X15239Y777461D01*
X25928Y777461D01*
X25831Y776847D01*
X25176Y774832D01*
X24214Y772944D01*
X22969Y771230D01*
X21470Y769731D01*
X19756Y768486D01*
X17868Y767524D01*
X15853Y766869D01*
X15239Y766772D01*
X15239Y777461D01*
G37*
%LPD*%
%LPC*%
G36*
X-528Y782539D02*
X-528Y782539D01*
X-431Y783153D01*
X224Y785168D01*
X1186Y787056D01*
X2431Y788770D01*
X3930Y790269D01*
X5644Y791514D01*
X7532Y792476D01*
X9547Y793131D01*
X10161Y793228D01*
X10161Y782539D01*
X-528Y782539D01*
G37*
%LPD*%
%LPC*%
G36*
X9547Y766869D02*
X9547Y766869D01*
X7532Y767524D01*
X5644Y768486D01*
X3930Y769731D01*
X2431Y771230D01*
X1186Y772944D01*
X224Y774832D01*
X-431Y776847D01*
X-528Y777461D01*
X10161Y777461D01*
X10161Y766772D01*
X9547Y766869D01*
G37*
%LPD*%
%LPC*%
G36*
X40639Y878839D02*
X40639Y878839D01*
X40639Y891694D01*
X41610Y891379D01*
X42893Y890725D01*
X44057Y889879D01*
X45075Y888861D01*
X45921Y887697D01*
X46575Y886414D01*
X47020Y885046D01*
X47245Y883624D01*
X47245Y878839D01*
X40639Y878839D01*
G37*
%LPD*%
%LPC*%
G36*
X40639Y873761D02*
X40639Y873761D01*
X47245Y873761D01*
X47245Y868976D01*
X47020Y867554D01*
X46575Y866186D01*
X45921Y864903D01*
X45075Y863739D01*
X44057Y862721D01*
X42893Y861875D01*
X41610Y861221D01*
X40639Y860906D01*
X40639Y873761D01*
G37*
%LPD*%
%LPC*%
G36*
X28955Y878839D02*
X28955Y878839D01*
X28955Y883624D01*
X29180Y885046D01*
X29625Y886414D01*
X30279Y887697D01*
X31125Y888861D01*
X32143Y889879D01*
X33307Y890725D01*
X34590Y891379D01*
X35561Y891694D01*
X35561Y878839D01*
X28955Y878839D01*
G37*
%LPD*%
%LPC*%
G36*
X34590Y861221D02*
X34590Y861221D01*
X33307Y861875D01*
X32143Y862721D01*
X31125Y863739D01*
X30279Y864903D01*
X29625Y866186D01*
X29180Y867554D01*
X28955Y868976D01*
X28955Y873761D01*
X35561Y873761D01*
X35561Y860906D01*
X34590Y861221D01*
G37*
%LPD*%
%LPC*%
G36*
X91439Y777239D02*
X91439Y777239D01*
X91439Y784781D01*
X96775Y784781D01*
X97421Y784608D01*
X98000Y784273D01*
X98473Y783800D01*
X98808Y783221D01*
X98981Y782575D01*
X98981Y777239D01*
X91439Y777239D01*
G37*
%LPD*%
%LPC*%
G36*
X91439Y764619D02*
X91439Y764619D01*
X91439Y772161D01*
X98981Y772161D01*
X98981Y766825D01*
X98808Y766179D01*
X98473Y765600D01*
X98000Y765127D01*
X97421Y764792D01*
X96775Y764619D01*
X91439Y764619D01*
G37*
%LPD*%
%LPC*%
G36*
X78819Y777239D02*
X78819Y777239D01*
X78819Y782575D01*
X78992Y783221D01*
X79327Y783800D01*
X79800Y784273D01*
X80379Y784608D01*
X81025Y784781D01*
X86361Y784781D01*
X86361Y777239D01*
X78819Y777239D01*
G37*
%LPD*%
%LPC*%
G36*
X81025Y764619D02*
X81025Y764619D01*
X80379Y764792D01*
X79800Y765127D01*
X79327Y765600D01*
X78992Y766179D01*
X78819Y766825D01*
X78819Y772161D01*
X86361Y772161D01*
X86361Y764619D01*
X81025Y764619D01*
G37*
%LPD*%
D10*
X12700Y780000D03*
X12700Y745000D03*
D11*
X254000Y685800D03*
X228600Y685800D03*
X203200Y685800D03*
X177800Y685800D03*
X152400Y685800D03*
X127000Y685800D03*
X101600Y685800D03*
X76200Y685800D03*
D12*
X38100Y869696D02*
X38100Y882904D01*
X12700Y882904D02*
X12700Y869696D01*
D13*
X25400Y977900D03*
X25400Y1003300D03*
D14*
X241300Y1104900D03*
X241300Y1079500D03*
X241300Y1054100D03*
X241300Y1028700D03*
X241300Y1003300D03*
X241300Y977900D03*
X241300Y952500D03*
X241300Y927100D03*
X241300Y901700D03*
X241300Y876300D03*
X241300Y850900D03*
X241300Y825500D03*
X241300Y800100D03*
X241300Y774700D03*
X241300Y749300D03*
X88900Y1104900D03*
D15*
X88900Y1079500D03*
D14*
X88900Y1054100D03*
X88900Y1028700D03*
X88900Y1003300D03*
X88900Y977900D03*
X88900Y952500D03*
X88900Y927100D03*
X88900Y901700D03*
X88900Y876300D03*
X88900Y850900D03*
X88900Y825500D03*
X88900Y800100D03*
X88900Y774700D03*
X88900Y749300D03*
D16*
X88900Y1104900D02*
X104648Y1104900D01*
X152400Y1057148D01*
X152400Y685800D01*
X191516Y1042416D02*
X228600Y1079500D01*
X241300Y1079500D01*
X203200Y723900D02*
X203200Y685800D01*
X203200Y723900D02*
X191516Y735584D01*
X191516Y1042416D01*
X225552Y1054100D02*
X241300Y1054100D01*
X225552Y1054100D02*
X215900Y1044448D01*
X228600Y723900D02*
X228600Y685800D01*
X228600Y723900D02*
X215900Y736600D01*
X215900Y1044448D01*
X226060Y1104900D02*
X241300Y1104900D01*
X226060Y1104900D02*
X178308Y1057148D01*
X178308Y686816D01*
D17*
X177800Y685800D01*
D16*
X104140Y1079500D02*
X88900Y1079500D01*
X104140Y1079500D02*
X113284Y1070356D01*
X101600Y723900D02*
X101600Y685800D01*
X101600Y723900D02*
X113284Y735584D01*
X113284Y1070356D01*
M02*
