G04 EAGLE Gerber RS-274X export*
G75*
%MOMM*%
%FSLAX34Y34*%
%LPD*%
%INSoldermask Bottom*%
%IPPOS*%
%AMOC8*
5,1,8,0,0,1.08239X$1,22.5*%
G01*
%ADD10C,2.387600*%
%ADD11P,2.144431X8X112.500000*%
%ADD12C,1.524000*%
%ADD13P,1.649562X8X112.500000*%
%ADD14R,1.711200X1.711200*%
%ADD15R,1.611200X1.611200*%


D10*
X12700Y780000D03*
X12700Y745000D03*
D11*
X254000Y685800D03*
X228600Y685800D03*
X203200Y685800D03*
X177800Y685800D03*
X152400Y685800D03*
X127000Y685800D03*
X101600Y685800D03*
X76200Y685800D03*
D12*
X38100Y869696D02*
X38100Y882904D01*
X12700Y882904D02*
X12700Y869696D01*
D13*
X25400Y977900D03*
X25400Y1003300D03*
D14*
X241300Y1104900D03*
X241300Y1079500D03*
X241300Y1054100D03*
X241300Y1028700D03*
X241300Y1003300D03*
X241300Y977900D03*
X241300Y952500D03*
X241300Y927100D03*
X241300Y901700D03*
X241300Y876300D03*
X241300Y850900D03*
X241300Y825500D03*
X241300Y800100D03*
X241300Y774700D03*
X241300Y749300D03*
X88900Y1104900D03*
D15*
X88900Y1079500D03*
D14*
X88900Y1054100D03*
X88900Y1028700D03*
X88900Y1003300D03*
X88900Y977900D03*
X88900Y952500D03*
X88900Y927100D03*
X88900Y901700D03*
X88900Y876300D03*
X88900Y850900D03*
X88900Y825500D03*
X88900Y800100D03*
X88900Y774700D03*
X88900Y749300D03*
M02*
