solid OpenSCAD_Model
  facet normal -1 0 0
    outer loop
      vertex -8.5 -10.25 0
      vertex -8.5 -1 55
      vertex -8.5 -1 0
    endloop
  endfacet
  facet normal -1 -0 0
    outer loop
      vertex -8.5 -1 55
      vertex -8.5 -10.25 0
      vertex -8.5 -10.25 55
    endloop
  endfacet
  facet normal -1 0 0
    outer loop
      vertex -8.5 1 0
      vertex -8.5 10.25 55
      vertex -8.5 10.25 0
    endloop
  endfacet
  facet normal -1 -0 0
    outer loop
      vertex -8.5 10.25 55
      vertex -8.5 1 0
      vertex -8.5 1 55
    endloop
  endfacet
  facet normal 0 0 1
    outer loop
      vertex 1 27.1 55
      vertex -1 27.1 55
      vertex 1 10.25 55
    endloop
  endfacet
  facet normal -0 0 1
    outer loop
      vertex 7.5 9.25 55
      vertex 8.5 1 55
      vertex 8.5 10.25 55
    endloop
  endfacet
  facet normal 0 0 1
    outer loop
      vertex 8.5 1 55
      vertex 7.5 9.25 55
      vertex 8.5 -1 55
    endloop
  endfacet
  facet normal 0 0 1
    outer loop
      vertex 7.5 -9.25 55
      vertex 8.5 -1 55
      vertex 7.5 9.25 55
    endloop
  endfacet
  facet normal -0 0 1
    outer loop
      vertex 1 10.25 55
      vertex 7.5 9.25 55
      vertex 8.5 10.25 55
    endloop
  endfacet
  facet normal 0 0 1
    outer loop
      vertex -1 10.25 55
      vertex 1 10.25 55
      vertex -1 27.1 55
    endloop
  endfacet
  facet normal -0 0 1
    outer loop
      vertex -1 10.25 55
      vertex 7.5 9.25 55
      vertex 1 10.25 55
    endloop
  endfacet
  facet normal 0 0 1
    outer loop
      vertex -1 10.25 55
      vertex -7.5 9.25 55
      vertex 7.5 9.25 55
    endloop
  endfacet
  facet normal 0 0 1
    outer loop
      vertex -8.5 1 55
      vertex -7.5 9.25 55
      vertex -8.5 10.25 55
    endloop
  endfacet
  facet normal -0 0 1
    outer loop
      vertex -8.5 10.25 55
      vertex -7.5 9.25 55
      vertex -1 10.25 55
    endloop
  endfacet
  facet normal -0 0 1
    outer loop
      vertex 8.5 1 55
      vertex 27.1 -1 55
      vertex 27.1 1 55
    endloop
  endfacet
  facet normal 0 0 1
    outer loop
      vertex 27.1 -1 55
      vertex 8.5 1 55
      vertex 8.5 -1 55
    endloop
  endfacet
  facet normal 0 0 1
    outer loop
      vertex 8.5 -1 55
      vertex 7.5 -9.25 55
      vertex 8.5 -10.25 55
    endloop
  endfacet
  facet normal 0 0 1
    outer loop
      vertex 7.5 -9.25 55
      vertex 1 -10.25 55
      vertex 8.5 -10.25 55
    endloop
  endfacet
  facet normal 0 0 1
    outer loop
      vertex 1 -10.25 55
      vertex -1 -10.25 55
      vertex 1 -27.1 55
    endloop
  endfacet
  facet normal 0 0 1
    outer loop
      vertex 7.5 -9.25 55
      vertex -1 -10.25 55
      vertex 1 -10.25 55
    endloop
  endfacet
  facet normal -0 0 1
    outer loop
      vertex -7.5 -9.25 55
      vertex -1 -10.25 55
      vertex 7.5 -9.25 55
    endloop
  endfacet
  facet normal 0 0 1
    outer loop
      vertex -7.5 9.25 55
      vertex -8.5 1 55
      vertex -7.5 -9.25 55
    endloop
  endfacet
  facet normal -0 0 1
    outer loop
      vertex -8.5 -1 55
      vertex -7.5 -9.25 55
      vertex -8.5 1 55
    endloop
  endfacet
  facet normal 0 0 1
    outer loop
      vertex -7.5 -9.25 55
      vertex -8.5 -10.25 55
      vertex -1 -10.25 55
    endloop
  endfacet
  facet normal 0 0 1
    outer loop
      vertex -8.5 -10.25 55
      vertex -7.5 -9.25 55
      vertex -8.5 -1 55
    endloop
  endfacet
  facet normal -0 0 1
    outer loop
      vertex -27.1 1 55
      vertex -8.5 -1 55
      vertex -8.5 1 55
    endloop
  endfacet
  facet normal 0 0 1
    outer loop
      vertex -8.5 -1 55
      vertex -27.1 1 55
      vertex -27.1 -1 55
    endloop
  endfacet
  facet normal 0 0 1
    outer loop
      vertex 1 -27.1 55
      vertex -1 -10.25 55
      vertex -1 -27.1 55
    endloop
  endfacet
  facet normal 1 -0 0
    outer loop
      vertex 8.5 -10.25 55
      vertex 8.5 -1 0
      vertex 8.5 -1 55
    endloop
  endfacet
  facet normal 1 0 0
    outer loop
      vertex 8.5 -1 0
      vertex 8.5 -10.25 55
      vertex 8.5 -10.25 0
    endloop
  endfacet
  facet normal 1 -0 0
    outer loop
      vertex 8.5 1 55
      vertex 8.5 10.25 0
      vertex 8.5 10.25 55
    endloop
  endfacet
  facet normal 1 0 0
    outer loop
      vertex 8.5 10.25 0
      vertex 8.5 1 55
      vertex 8.5 1 0
    endloop
  endfacet
  facet normal 0 1 -0
    outer loop
      vertex 8.5 10.25 0
      vertex 1 10.25 55
      vertex 8.5 10.25 55
    endloop
  endfacet
  facet normal 0 1 0
    outer loop
      vertex 1 10.25 55
      vertex 8.5 10.25 0
      vertex 1 10.25 0
    endloop
  endfacet
  facet normal 0 1 -0
    outer loop
      vertex -1 10.25 0
      vertex -8.5 10.25 55
      vertex -1 10.25 55
    endloop
  endfacet
  facet normal 0 1 0
    outer loop
      vertex -8.5 10.25 55
      vertex -1 10.25 0
      vertex -8.5 10.25 0
    endloop
  endfacet
  facet normal 0 0 -1
    outer loop
      vertex 1 -27.1 0
      vertex -1 -27.1 0
      vertex 1 -10.25 0
    endloop
  endfacet
  facet normal 0 0 -1
    outer loop
      vertex 7.5 -9.25 0
      vertex 8.5 -1 0
      vertex 8.5 -10.25 0
    endloop
  endfacet
  facet normal -0 0 -1
    outer loop
      vertex 8.5 -1 0
      vertex 7.5 -9.25 0
      vertex 8.5 1 0
    endloop
  endfacet
  facet normal 0 0 -1
    outer loop
      vertex 7.5 9.25 0
      vertex 8.5 1 0
      vertex 7.5 -9.25 0
    endloop
  endfacet
  facet normal 0 0 -1
    outer loop
      vertex 1 -10.25 0
      vertex 7.5 -9.25 0
      vertex 8.5 -10.25 0
    endloop
  endfacet
  facet normal 0 0 -1
    outer loop
      vertex -1 -10.25 0
      vertex 1 -10.25 0
      vertex -1 -27.1 0
    endloop
  endfacet
  facet normal 0 0 -1
    outer loop
      vertex -1 -10.25 0
      vertex 7.5 -9.25 0
      vertex 1 -10.25 0
    endloop
  endfacet
  facet normal 0 0 -1
    outer loop
      vertex -1 -10.25 0
      vertex -7.5 -9.25 0
      vertex 7.5 -9.25 0
    endloop
  endfacet
  facet normal 0 0 -1
    outer loop
      vertex -8.5 -1 0
      vertex -7.5 -9.25 0
      vertex -8.5 -10.25 0
    endloop
  endfacet
  facet normal 0 0 -1
    outer loop
      vertex -8.5 -10.25 0
      vertex -7.5 -9.25 0
      vertex -1 -10.25 0
    endloop
  endfacet
  facet normal 0 0 -1
    outer loop
      vertex 8.5 -1 0
      vertex 27.1 1 0
      vertex 27.1 -1 0
    endloop
  endfacet
  facet normal -0 0 -1
    outer loop
      vertex 27.1 1 0
      vertex 8.5 -1 0
      vertex 8.5 1 0
    endloop
  endfacet
  facet normal 0 0 -1
    outer loop
      vertex 8.5 1 0
      vertex 7.5 9.25 0
      vertex 8.5 10.25 0
    endloop
  endfacet
  facet normal 0 0 -1
    outer loop
      vertex 7.5 9.25 0
      vertex 1 10.25 0
      vertex 8.5 10.25 0
    endloop
  endfacet
  facet normal 0 0 -1
    outer loop
      vertex 1 10.25 0
      vertex -1 10.25 0
      vertex 1 27.1 0
    endloop
  endfacet
  facet normal 0 0 -1
    outer loop
      vertex 7.5 9.25 0
      vertex -1 10.25 0
      vertex 1 10.25 0
    endloop
  endfacet
  facet normal 0 0 -1
    outer loop
      vertex -7.5 9.25 0
      vertex -1 10.25 0
      vertex 7.5 9.25 0
    endloop
  endfacet
  facet normal 0 0 -1
    outer loop
      vertex -7.5 -9.25 0
      vertex -8.5 -1 0
      vertex -7.5 9.25 0
    endloop
  endfacet
  facet normal 0 0 -1
    outer loop
      vertex -8.5 1 0
      vertex -7.5 9.25 0
      vertex -8.5 -1 0
    endloop
  endfacet
  facet normal 0 0 -1
    outer loop
      vertex -7.5 9.25 0
      vertex -8.5 10.25 0
      vertex -1 10.25 0
    endloop
  endfacet
  facet normal 0 0 -1
    outer loop
      vertex -8.5 10.25 0
      vertex -7.5 9.25 0
      vertex -8.5 1 0
    endloop
  endfacet
  facet normal 0 0 -1
    outer loop
      vertex -27.1 -1 0
      vertex -8.5 1 0
      vertex -8.5 -1 0
    endloop
  endfacet
  facet normal -0 0 -1
    outer loop
      vertex -8.5 1 0
      vertex -27.1 -1 0
      vertex -27.1 1 0
    endloop
  endfacet
  facet normal -0 0 -1
    outer loop
      vertex 1 27.1 0
      vertex -1 10.25 0
      vertex -1 27.1 0
    endloop
  endfacet
  facet normal 0 -1 0
    outer loop
      vertex 1 -10.25 0
      vertex 8.5 -10.25 55
      vertex 1 -10.25 55
    endloop
  endfacet
  facet normal 0 -1 -0
    outer loop
      vertex 8.5 -10.25 55
      vertex 1 -10.25 0
      vertex 8.5 -10.25 0
    endloop
  endfacet
  facet normal 0 -1 0
    outer loop
      vertex -8.5 -10.25 0
      vertex -1 -10.25 55
      vertex -8.5 -10.25 55
    endloop
  endfacet
  facet normal 0 -1 -0
    outer loop
      vertex -1 -10.25 55
      vertex -8.5 -10.25 0
      vertex -1 -10.25 0
    endloop
  endfacet
  facet normal 1 -0 0
    outer loop
      vertex -7.5 -9.25 55
      vertex -7.5 9.25 0
      vertex -7.5 9.25 55
    endloop
  endfacet
  facet normal 1 0 0
    outer loop
      vertex -7.5 9.25 0
      vertex -7.5 -9.25 55
      vertex -7.5 -9.25 0
    endloop
  endfacet
  facet normal -1 0 0
    outer loop
      vertex 7.5 -9.25 0
      vertex 7.5 9.25 55
      vertex 7.5 9.25 0
    endloop
  endfacet
  facet normal -1 -0 0
    outer loop
      vertex 7.5 9.25 55
      vertex 7.5 -9.25 0
      vertex 7.5 -9.25 55
    endloop
  endfacet
  facet normal 0 1 -0
    outer loop
      vertex 7.5 -9.25 0
      vertex -7.5 -9.25 55
      vertex 7.5 -9.25 55
    endloop
  endfacet
  facet normal 0 1 0
    outer loop
      vertex -7.5 -9.25 55
      vertex 7.5 -9.25 0
      vertex -7.5 -9.25 0
    endloop
  endfacet
  facet normal 0 -1 0
    outer loop
      vertex -7.5 9.25 0
      vertex 7.5 9.25 55
      vertex -7.5 9.25 55
    endloop
  endfacet
  facet normal 0 -1 -0
    outer loop
      vertex 7.5 9.25 55
      vertex -7.5 9.25 0
      vertex 7.5 9.25 0
    endloop
  endfacet
  facet normal -1 0 0
    outer loop
      vertex -27.1 -1 0
      vertex -27.1 1 55
      vertex -27.1 1 0
    endloop
  endfacet
  facet normal -1 -0 0
    outer loop
      vertex -27.1 1 55
      vertex -27.1 -1 0
      vertex -27.1 -1 55
    endloop
  endfacet
  facet normal 1 -0 0
    outer loop
      vertex 27.1 -1 55
      vertex 27.1 1 0
      vertex 27.1 1 55
    endloop
  endfacet
  facet normal 1 0 0
    outer loop
      vertex 27.1 1 0
      vertex 27.1 -1 55
      vertex 27.1 -1 0
    endloop
  endfacet
  facet normal 0 -1 0
    outer loop
      vertex 22 -1 4
      vertex 24 -1 51
      vertex 22 -1 51
    endloop
  endfacet
  facet normal 0 -1 -0
    outer loop
      vertex 24 -1 51
      vertex 22 -1 4
      vertex 24 -1 4
    endloop
  endfacet
  facet normal 0 -1 0
    outer loop
      vertex 18 -1 4
      vertex 20 -1 51
      vertex 18 -1 51
    endloop
  endfacet
  facet normal 0 -1 -0
    outer loop
      vertex 20 -1 51
      vertex 18 -1 4
      vertex 20 -1 4
    endloop
  endfacet
  facet normal 0 -1 0
    outer loop
      vertex 14 -1 4
      vertex 16 -1 51
      vertex 14 -1 51
    endloop
  endfacet
  facet normal 0 -1 -0
    outer loop
      vertex 16 -1 51
      vertex 14 -1 4
      vertex 16 -1 4
    endloop
  endfacet
  facet normal 0 -1 0
    outer loop
      vertex 14 -1 51
      vertex 8.5 -1 55
      vertex 12 -1 51
    endloop
  endfacet
  facet normal 0 -1 0
    outer loop
      vertex 8.5 -1 55
      vertex 12 -1 4
      vertex 12 -1 51
    endloop
  endfacet
  facet normal 0 -1 0
    outer loop
      vertex 8.5 -1 0
      vertex 14 -1 4
      vertex 12 -1 4
    endloop
  endfacet
  facet normal 0 -1 -0
    outer loop
      vertex 14 -1 4
      vertex 8.5 -1 0
      vertex 16 -1 4
    endloop
  endfacet
  facet normal 0 -1 -0
    outer loop
      vertex 16 -1 4
      vertex 8.5 -1 0
      vertex 18 -1 4
    endloop
  endfacet
  facet normal 0 -1 0
    outer loop
      vertex 27.1 -1 0
      vertex 18 -1 4
      vertex 8.5 -1 0
    endloop
  endfacet
  facet normal 0 -1 0
    outer loop
      vertex 18 -1 4
      vertex 27.1 -1 0
      vertex 20 -1 4
    endloop
  endfacet
  facet normal 0 -1 0
    outer loop
      vertex 22 -1 4
      vertex 27.1 -1 0
      vertex 24 -1 4
    endloop
  endfacet
  facet normal 0 -1 0
    outer loop
      vertex 20 -1 4
      vertex 27.1 -1 0
      vertex 22 -1 4
    endloop
  endfacet
  facet normal 0 -1 0
    outer loop
      vertex 8.5 -1 0
      vertex 12 -1 4
      vertex 8.5 -1 55
    endloop
  endfacet
  facet normal 0 -1 0
    outer loop
      vertex 16 -1 51
      vertex 8.5 -1 55
      vertex 14 -1 51
    endloop
  endfacet
  facet normal 0 -1 0
    outer loop
      vertex 18 -1 51
      vertex 8.5 -1 55
      vertex 16 -1 51
    endloop
  endfacet
  facet normal 0 -1 0
    outer loop
      vertex 8.5 -1 55
      vertex 18 -1 51
      vertex 27.1 -1 55
    endloop
  endfacet
  facet normal 0 -1 0
    outer loop
      vertex 20 -1 51
      vertex 27.1 -1 55
      vertex 18 -1 51
    endloop
  endfacet
  facet normal 0 -1 0
    outer loop
      vertex 22 -1 51
      vertex 27.1 -1 55
      vertex 20 -1 51
    endloop
  endfacet
  facet normal 0 -1 0
    outer loop
      vertex 24 -1 51
      vertex 27.1 -1 55
      vertex 22 -1 51
    endloop
  endfacet
  facet normal 0 -1 0
    outer loop
      vertex 26 -1 51
      vertex 27.1 -1 55
      vertex 24 -1 51
    endloop
  endfacet
  facet normal 0 -1 0
    outer loop
      vertex 26 -1 4
      vertex 27.1 -1 55
      vertex 26 -1 51
    endloop
  endfacet
  facet normal 0 -1 0
    outer loop
      vertex 26 -1 4
      vertex 27.1 -1 0
      vertex 27.1 -1 55
    endloop
  endfacet
  facet normal 0 -1 0
    outer loop
      vertex 24 -1 4
      vertex 27.1 -1 0
      vertex 26 -1 4
    endloop
  endfacet
  facet normal 0 -1 0
    outer loop
      vertex -16 -1 4
      vertex -14 -1 51
      vertex -16 -1 51
    endloop
  endfacet
  facet normal 0 -1 -0
    outer loop
      vertex -14 -1 51
      vertex -16 -1 4
      vertex -14 -1 4
    endloop
  endfacet
  facet normal 0 -1 0
    outer loop
      vertex -20 -1 4
      vertex -18 -1 51
      vertex -20 -1 51
    endloop
  endfacet
  facet normal 0 -1 -0
    outer loop
      vertex -18 -1 51
      vertex -20 -1 4
      vertex -18 -1 4
    endloop
  endfacet
  facet normal 0 -1 0
    outer loop
      vertex -24 -1 4
      vertex -22 -1 51
      vertex -24 -1 51
    endloop
  endfacet
  facet normal 0 -1 -0
    outer loop
      vertex -22 -1 51
      vertex -24 -1 4
      vertex -22 -1 4
    endloop
  endfacet
  facet normal 0 -1 0
    outer loop
      vertex -24 -1 51
      vertex -27.1 -1 55
      vertex -26 -1 51
    endloop
  endfacet
  facet normal 0 -1 0
    outer loop
      vertex -27.1 -1 55
      vertex -26 -1 4
      vertex -26 -1 51
    endloop
  endfacet
  facet normal 0 -1 0
    outer loop
      vertex -27.1 -1 0
      vertex -24 -1 4
      vertex -26 -1 4
    endloop
  endfacet
  facet normal 0 -1 -0
    outer loop
      vertex -24 -1 4
      vertex -27.1 -1 0
      vertex -22 -1 4
    endloop
  endfacet
  facet normal 0 -1 -0
    outer loop
      vertex -22 -1 4
      vertex -27.1 -1 0
      vertex -20 -1 4
    endloop
  endfacet
  facet normal 0 -1 -0
    outer loop
      vertex -20 -1 4
      vertex -27.1 -1 0
      vertex -18 -1 4
    endloop
  endfacet
  facet normal 0 -1 0
    outer loop
      vertex -8.5 -1 0
      vertex -18 -1 4
      vertex -27.1 -1 0
    endloop
  endfacet
  facet normal 0 -1 0
    outer loop
      vertex -18 -1 4
      vertex -8.5 -1 0
      vertex -16 -1 4
    endloop
  endfacet
  facet normal 0 -1 0
    outer loop
      vertex -16 -1 4
      vertex -8.5 -1 0
      vertex -14 -1 4
    endloop
  endfacet
  facet normal 0 -1 0
    outer loop
      vertex -27.1 -1 0
      vertex -26 -1 4
      vertex -27.1 -1 55
    endloop
  endfacet
  facet normal 0 -1 0
    outer loop
      vertex -22 -1 51
      vertex -27.1 -1 55
      vertex -24 -1 51
    endloop
  endfacet
  facet normal 0 -1 0
    outer loop
      vertex -20 -1 51
      vertex -27.1 -1 55
      vertex -22 -1 51
    endloop
  endfacet
  facet normal 0 -1 0
    outer loop
      vertex -18 -1 51
      vertex -27.1 -1 55
      vertex -20 -1 51
    endloop
  endfacet
  facet normal 0 -1 0
    outer loop
      vertex -27.1 -1 55
      vertex -18 -1 51
      vertex -8.5 -1 55
    endloop
  endfacet
  facet normal 0 -1 0
    outer loop
      vertex -16 -1 51
      vertex -8.5 -1 55
      vertex -18 -1 51
    endloop
  endfacet
  facet normal 0 -1 0
    outer loop
      vertex -14 -1 51
      vertex -8.5 -1 55
      vertex -16 -1 51
    endloop
  endfacet
  facet normal 0 -1 0
    outer loop
      vertex -12 -1 51
      vertex -8.5 -1 55
      vertex -14 -1 51
    endloop
  endfacet
  facet normal 0 -1 0
    outer loop
      vertex -12 -1 4
      vertex -8.5 -1 55
      vertex -12 -1 51
    endloop
  endfacet
  facet normal 0 -1 0
    outer loop
      vertex -12 -1 4
      vertex -8.5 -1 0
      vertex -8.5 -1 55
    endloop
  endfacet
  facet normal 0 -1 0
    outer loop
      vertex -14 -1 4
      vertex -8.5 -1 0
      vertex -12 -1 4
    endloop
  endfacet
  facet normal 0 1 -0
    outer loop
      vertex 16 1 4
      vertex 14 1 51
      vertex 16 1 51
    endloop
  endfacet
  facet normal 0 1 0
    outer loop
      vertex 14 1 51
      vertex 16 1 4
      vertex 14 1 4
    endloop
  endfacet
  facet normal 0 1 -0
    outer loop
      vertex 20 1 4
      vertex 18 1 51
      vertex 20 1 51
    endloop
  endfacet
  facet normal 0 1 0
    outer loop
      vertex 18 1 51
      vertex 20 1 4
      vertex 18 1 4
    endloop
  endfacet
  facet normal 0 1 -0
    outer loop
      vertex 24 1 4
      vertex 22 1 51
      vertex 24 1 51
    endloop
  endfacet
  facet normal 0 1 0
    outer loop
      vertex 22 1 51
      vertex 24 1 4
      vertex 22 1 4
    endloop
  endfacet
  facet normal 0 1 0
    outer loop
      vertex 24 1 51
      vertex 27.1 1 55
      vertex 26 1 51
    endloop
  endfacet
  facet normal 0 1 0
    outer loop
      vertex 27.1 1 55
      vertex 26 1 4
      vertex 26 1 51
    endloop
  endfacet
  facet normal 0 1 0
    outer loop
      vertex 27.1 1 0
      vertex 24 1 4
      vertex 26 1 4
    endloop
  endfacet
  facet normal 0 1 0
    outer loop
      vertex 24 1 4
      vertex 27.1 1 0
      vertex 22 1 4
    endloop
  endfacet
  facet normal 0 1 0
    outer loop
      vertex 22 1 4
      vertex 27.1 1 0
      vertex 20 1 4
    endloop
  endfacet
  facet normal 0 1 0
    outer loop
      vertex 20 1 4
      vertex 27.1 1 0
      vertex 18 1 4
    endloop
  endfacet
  facet normal 0 1 0
    outer loop
      vertex 8.5 1 0
      vertex 18 1 4
      vertex 27.1 1 0
    endloop
  endfacet
  facet normal 0 1 0
    outer loop
      vertex 18 1 4
      vertex 8.5 1 0
      vertex 16 1 4
    endloop
  endfacet
  facet normal 0 1 0
    outer loop
      vertex 16 1 4
      vertex 8.5 1 0
      vertex 14 1 4
    endloop
  endfacet
  facet normal 0 1 -0
    outer loop
      vertex 27.1 1 0
      vertex 26 1 4
      vertex 27.1 1 55
    endloop
  endfacet
  facet normal 0 1 0
    outer loop
      vertex 22 1 51
      vertex 27.1 1 55
      vertex 24 1 51
    endloop
  endfacet
  facet normal 0 1 0
    outer loop
      vertex 20 1 51
      vertex 27.1 1 55
      vertex 22 1 51
    endloop
  endfacet
  facet normal 0 1 0
    outer loop
      vertex 18 1 51
      vertex 27.1 1 55
      vertex 20 1 51
    endloop
  endfacet
  facet normal 0 1 0
    outer loop
      vertex 27.1 1 55
      vertex 18 1 51
      vertex 8.5 1 55
    endloop
  endfacet
  facet normal 0 1 -0
    outer loop
      vertex 16 1 51
      vertex 8.5 1 55
      vertex 18 1 51
    endloop
  endfacet
  facet normal 0 1 -0
    outer loop
      vertex 14 1 51
      vertex 8.5 1 55
      vertex 16 1 51
    endloop
  endfacet
  facet normal 0 1 -0
    outer loop
      vertex 12 1 51
      vertex 8.5 1 55
      vertex 14 1 51
    endloop
  endfacet
  facet normal 0 1 -0
    outer loop
      vertex 12 1 4
      vertex 8.5 1 55
      vertex 12 1 51
    endloop
  endfacet
  facet normal 0 1 0
    outer loop
      vertex 12 1 4
      vertex 8.5 1 0
      vertex 8.5 1 55
    endloop
  endfacet
  facet normal 0 1 0
    outer loop
      vertex 14 1 4
      vertex 8.5 1 0
      vertex 12 1 4
    endloop
  endfacet
  facet normal 0 1 -0
    outer loop
      vertex -22 1 4
      vertex -24 1 51
      vertex -22 1 51
    endloop
  endfacet
  facet normal 0 1 0
    outer loop
      vertex -24 1 51
      vertex -22 1 4
      vertex -24 1 4
    endloop
  endfacet
  facet normal 0 1 -0
    outer loop
      vertex -18 1 4
      vertex -20 1 51
      vertex -18 1 51
    endloop
  endfacet
  facet normal 0 1 0
    outer loop
      vertex -20 1 51
      vertex -18 1 4
      vertex -20 1 4
    endloop
  endfacet
  facet normal 0 1 -0
    outer loop
      vertex -14 1 4
      vertex -16 1 51
      vertex -14 1 51
    endloop
  endfacet
  facet normal 0 1 0
    outer loop
      vertex -16 1 51
      vertex -14 1 4
      vertex -16 1 4
    endloop
  endfacet
  facet normal 0 1 0
    outer loop
      vertex -14 1 51
      vertex -8.5 1 55
      vertex -12 1 51
    endloop
  endfacet
  facet normal 0 1 0
    outer loop
      vertex -8.5 1 55
      vertex -12 1 4
      vertex -12 1 51
    endloop
  endfacet
  facet normal 0 1 0
    outer loop
      vertex -8.5 1 0
      vertex -14 1 4
      vertex -12 1 4
    endloop
  endfacet
  facet normal 0 1 0
    outer loop
      vertex -14 1 4
      vertex -8.5 1 0
      vertex -16 1 4
    endloop
  endfacet
  facet normal 0 1 0
    outer loop
      vertex -16 1 4
      vertex -8.5 1 0
      vertex -18 1 4
    endloop
  endfacet
  facet normal 0 1 0
    outer loop
      vertex -27.1 1 0
      vertex -18 1 4
      vertex -8.5 1 0
    endloop
  endfacet
  facet normal 0 1 0
    outer loop
      vertex -18 1 4
      vertex -27.1 1 0
      vertex -20 1 4
    endloop
  endfacet
  facet normal 0 1 0
    outer loop
      vertex -22 1 4
      vertex -27.1 1 0
      vertex -24 1 4
    endloop
  endfacet
  facet normal 0 1 0
    outer loop
      vertex -20 1 4
      vertex -27.1 1 0
      vertex -22 1 4
    endloop
  endfacet
  facet normal 0 1 -0
    outer loop
      vertex -8.5 1 0
      vertex -12 1 4
      vertex -8.5 1 55
    endloop
  endfacet
  facet normal 0 1 0
    outer loop
      vertex -16 1 51
      vertex -8.5 1 55
      vertex -14 1 51
    endloop
  endfacet
  facet normal 0 1 0
    outer loop
      vertex -18 1 51
      vertex -8.5 1 55
      vertex -16 1 51
    endloop
  endfacet
  facet normal 0 1 0
    outer loop
      vertex -8.5 1 55
      vertex -18 1 51
      vertex -27.1 1 55
    endloop
  endfacet
  facet normal 0 1 -0
    outer loop
      vertex -20 1 51
      vertex -27.1 1 55
      vertex -18 1 51
    endloop
  endfacet
  facet normal 0 1 -0
    outer loop
      vertex -22 1 51
      vertex -27.1 1 55
      vertex -20 1 51
    endloop
  endfacet
  facet normal 0 1 -0
    outer loop
      vertex -24 1 51
      vertex -27.1 1 55
      vertex -22 1 51
    endloop
  endfacet
  facet normal 0 1 -0
    outer loop
      vertex -26 1 51
      vertex -27.1 1 55
      vertex -24 1 51
    endloop
  endfacet
  facet normal 0 1 -0
    outer loop
      vertex -26 1 4
      vertex -27.1 1 55
      vertex -26 1 51
    endloop
  endfacet
  facet normal 0 1 0
    outer loop
      vertex -26 1 4
      vertex -27.1 1 0
      vertex -27.1 1 55
    endloop
  endfacet
  facet normal 0 1 0
    outer loop
      vertex -24 1 4
      vertex -27.1 1 0
      vertex -26 1 4
    endloop
  endfacet
  facet normal -1 0 0
    outer loop
      vertex -1 -10.25 0
      vertex -1 -15.5 4
      vertex -1 -10.25 55
    endloop
  endfacet
  facet normal -1 0 0
    outer loop
      vertex -1 -10.25 0
      vertex -1 -17.5 4
      vertex -1 -15.5 4
    endloop
  endfacet
  facet normal -1 0 0
    outer loop
      vertex -1 -17.5 4
      vertex -1 -19.5 4
      vertex -1 -17.5 51
    endloop
  endfacet
  facet normal -1 0 0
    outer loop
      vertex -1 -10.25 0
      vertex -1 -19.5 4
      vertex -1 -17.5 4
    endloop
  endfacet
  facet normal -1 0 0
    outer loop
      vertex -1 -27.1 0
      vertex -1 -19.5 4
      vertex -1 -10.25 0
    endloop
  endfacet
  facet normal -1 0 0
    outer loop
      vertex -1 -21.5 4
      vertex -1 -23.5 4
      vertex -1 -21.5 51
    endloop
  endfacet
  facet normal -1 -0 0
    outer loop
      vertex -1 -19.5 4
      vertex -1 -27.1 0
      vertex -1 -21.5 4
    endloop
  endfacet
  facet normal -1 -0 0
    outer loop
      vertex -1 -21.5 4
      vertex -1 -27.1 0
      vertex -1 -23.5 4
    endloop
  endfacet
  facet normal -1 -0 0
    outer loop
      vertex -1 -25.5 4
      vertex -1 -27.1 0
      vertex -1 -25.5 51
    endloop
  endfacet
  facet normal -1 -0 0
    outer loop
      vertex -1 -23.5 4
      vertex -1 -27.1 0
      vertex -1 -25.5 4
    endloop
  endfacet
  facet normal -1 0 0
    outer loop
      vertex -1 -15.5 51
      vertex -1 -10.25 55
      vertex -1 -15.5 4
    endloop
  endfacet
  facet normal -1 0 0
    outer loop
      vertex -1 -17.5 51
      vertex -1 -10.25 55
      vertex -1 -15.5 51
    endloop
  endfacet
  facet normal -1 0 0
    outer loop
      vertex -1 -19.5 51
      vertex -1 -17.5 51
      vertex -1 -19.5 4
    endloop
  endfacet
  facet normal -1 0 0
    outer loop
      vertex -1 -19.5 51
      vertex -1 -10.25 55
      vertex -1 -17.5 51
    endloop
  endfacet
  facet normal -1 0 0
    outer loop
      vertex -1 -27.1 55
      vertex -1 -19.5 51
      vertex -1 -21.5 51
    endloop
  endfacet
  facet normal -1 0 0
    outer loop
      vertex -1 -23.5 51
      vertex -1 -21.5 51
      vertex -1 -23.5 4
    endloop
  endfacet
  facet normal -1 0 0
    outer loop
      vertex -1 -27.1 55
      vertex -1 -21.5 51
      vertex -1 -23.5 51
    endloop
  endfacet
  facet normal -1 0 0
    outer loop
      vertex -1 -27.1 55
      vertex -1 -23.5 51
      vertex -1 -25.5 51
    endloop
  endfacet
  facet normal -1 0 0
    outer loop
      vertex -1 -19.5 51
      vertex -1 -27.1 55
      vertex -1 -10.25 55
    endloop
  endfacet
  facet normal -1 0 0
    outer loop
      vertex -1 -27.1 55
      vertex -1 -25.5 51
      vertex -1 -27.1 0
    endloop
  endfacet
  facet normal -1 0 0
    outer loop
      vertex -1 27.1 0
      vertex -1 25.5 4
      vertex -1 27.1 55
    endloop
  endfacet
  facet normal -1 0 0
    outer loop
      vertex -1 27.1 0
      vertex -1 23.5 4
      vertex -1 25.5 4
    endloop
  endfacet
  facet normal -1 0 0
    outer loop
      vertex -1 23.5 4
      vertex -1 21.5 4
      vertex -1 23.5 51
    endloop
  endfacet
  facet normal -1 0 0
    outer loop
      vertex -1 27.1 0
      vertex -1 21.5 4
      vertex -1 23.5 4
    endloop
  endfacet
  facet normal -1 0 0
    outer loop
      vertex -1 27.1 0
      vertex -1 19.5 4
      vertex -1 21.5 4
    endloop
  endfacet
  facet normal -1 0 0
    outer loop
      vertex -1 19.5 4
      vertex -1 17.5 4
      vertex -1 19.5 51
    endloop
  endfacet
  facet normal -1 0 0
    outer loop
      vertex -1 10.25 0
      vertex -1 19.5 4
      vertex -1 27.1 0
    endloop
  endfacet
  facet normal -1 -0 0
    outer loop
      vertex -1 19.5 4
      vertex -1 10.25 0
      vertex -1 17.5 4
    endloop
  endfacet
  facet normal -1 -0 0
    outer loop
      vertex -1 15.5 4
      vertex -1 10.25 0
      vertex -1 15.5 51
    endloop
  endfacet
  facet normal -1 -0 0
    outer loop
      vertex -1 17.5 4
      vertex -1 10.25 0
      vertex -1 15.5 4
    endloop
  endfacet
  facet normal -1 0 0
    outer loop
      vertex -1 25.5 51
      vertex -1 27.1 55
      vertex -1 25.5 4
    endloop
  endfacet
  facet normal -1 0 0
    outer loop
      vertex -1 23.5 51
      vertex -1 27.1 55
      vertex -1 25.5 51
    endloop
  endfacet
  facet normal -1 0 0
    outer loop
      vertex -1 21.5 51
      vertex -1 23.5 51
      vertex -1 21.5 4
    endloop
  endfacet
  facet normal -1 0 0
    outer loop
      vertex -1 21.5 51
      vertex -1 27.1 55
      vertex -1 23.5 51
    endloop
  endfacet
  facet normal -1 0 0
    outer loop
      vertex -1 19.5 51
      vertex -1 27.1 55
      vertex -1 21.5 51
    endloop
  endfacet
  facet normal -1 0 0
    outer loop
      vertex -1 17.5 51
      vertex -1 19.5 51
      vertex -1 17.5 4
    endloop
  endfacet
  facet normal -1 0 0
    outer loop
      vertex -1 10.25 55
      vertex -1 19.5 51
      vertex -1 17.5 51
    endloop
  endfacet
  facet normal -1 0 0
    outer loop
      vertex -1 10.25 55
      vertex -1 17.5 51
      vertex -1 15.5 51
    endloop
  endfacet
  facet normal -1 0 0
    outer loop
      vertex -1 19.5 51
      vertex -1 10.25 55
      vertex -1 27.1 55
    endloop
  endfacet
  facet normal -1 0 0
    outer loop
      vertex -1 10.25 55
      vertex -1 15.5 51
      vertex -1 10.25 0
    endloop
  endfacet
  facet normal 1 0 0
    outer loop
      vertex 1 -10.25 55
      vertex 1 -15.5 51
      vertex 1 -10.25 0
    endloop
  endfacet
  facet normal 1 0 0
    outer loop
      vertex 1 -10.25 55
      vertex 1 -17.5 51
      vertex 1 -15.5 51
    endloop
  endfacet
  facet normal 1 0 0
    outer loop
      vertex 1 -17.5 51
      vertex 1 -19.5 51
      vertex 1 -17.5 4
    endloop
  endfacet
  facet normal 1 0 0
    outer loop
      vertex 1 -10.25 55
      vertex 1 -19.5 51
      vertex 1 -17.5 51
    endloop
  endfacet
  facet normal 1 -0 0
    outer loop
      vertex 1 -27.1 55
      vertex 1 -19.5 51
      vertex 1 -10.25 55
    endloop
  endfacet
  facet normal 1 0 0
    outer loop
      vertex 1 -21.5 51
      vertex 1 -23.5 51
      vertex 1 -21.5 4
    endloop
  endfacet
  facet normal 1 0 0
    outer loop
      vertex 1 -19.5 51
      vertex 1 -27.1 55
      vertex 1 -21.5 51
    endloop
  endfacet
  facet normal 1 0 0
    outer loop
      vertex 1 -21.5 51
      vertex 1 -27.1 55
      vertex 1 -23.5 51
    endloop
  endfacet
  facet normal 1 0 0
    outer loop
      vertex 1 -25.5 51
      vertex 1 -27.1 55
      vertex 1 -25.5 4
    endloop
  endfacet
  facet normal 1 0 0
    outer loop
      vertex 1 -23.5 51
      vertex 1 -27.1 55
      vertex 1 -25.5 51
    endloop
  endfacet
  facet normal 1 -0 0
    outer loop
      vertex 1 -15.5 4
      vertex 1 -10.25 0
      vertex 1 -15.5 51
    endloop
  endfacet
  facet normal 1 -0 0
    outer loop
      vertex 1 -17.5 4
      vertex 1 -10.25 0
      vertex 1 -15.5 4
    endloop
  endfacet
  facet normal 1 0 0
    outer loop
      vertex 1 -19.5 4
      vertex 1 -17.5 4
      vertex 1 -19.5 51
    endloop
  endfacet
  facet normal 1 -0 0
    outer loop
      vertex 1 -19.5 4
      vertex 1 -10.25 0
      vertex 1 -17.5 4
    endloop
  endfacet
  facet normal 1 0 0
    outer loop
      vertex 1 -27.1 0
      vertex 1 -19.5 4
      vertex 1 -21.5 4
    endloop
  endfacet
  facet normal 1 0 0
    outer loop
      vertex 1 -23.5 4
      vertex 1 -21.5 4
      vertex 1 -23.5 51
    endloop
  endfacet
  facet normal 1 0 0
    outer loop
      vertex 1 -27.1 0
      vertex 1 -21.5 4
      vertex 1 -23.5 4
    endloop
  endfacet
  facet normal 1 0 0
    outer loop
      vertex 1 -27.1 0
      vertex 1 -23.5 4
      vertex 1 -25.5 4
    endloop
  endfacet
  facet normal 1 0 0
    outer loop
      vertex 1 -19.5 4
      vertex 1 -27.1 0
      vertex 1 -10.25 0
    endloop
  endfacet
  facet normal 1 0 0
    outer loop
      vertex 1 -27.1 0
      vertex 1 -25.5 4
      vertex 1 -27.1 55
    endloop
  endfacet
  facet normal 1 0 0
    outer loop
      vertex 1 27.1 55
      vertex 1 25.5 51
      vertex 1 27.1 0
    endloop
  endfacet
  facet normal 1 0 0
    outer loop
      vertex 1 27.1 55
      vertex 1 23.5 51
      vertex 1 25.5 51
    endloop
  endfacet
  facet normal 1 0 0
    outer loop
      vertex 1 23.5 51
      vertex 1 21.5 51
      vertex 1 23.5 4
    endloop
  endfacet
  facet normal 1 0 0
    outer loop
      vertex 1 27.1 55
      vertex 1 21.5 51
      vertex 1 23.5 51
    endloop
  endfacet
  facet normal 1 0 0
    outer loop
      vertex 1 27.1 55
      vertex 1 19.5 51
      vertex 1 21.5 51
    endloop
  endfacet
  facet normal 1 0 0
    outer loop
      vertex 1 19.5 51
      vertex 1 17.5 51
      vertex 1 19.5 4
    endloop
  endfacet
  facet normal 1 -0 0
    outer loop
      vertex 1 10.25 55
      vertex 1 19.5 51
      vertex 1 27.1 55
    endloop
  endfacet
  facet normal 1 0 0
    outer loop
      vertex 1 19.5 51
      vertex 1 10.25 55
      vertex 1 17.5 51
    endloop
  endfacet
  facet normal 1 0 0
    outer loop
      vertex 1 15.5 51
      vertex 1 10.25 55
      vertex 1 15.5 4
    endloop
  endfacet
  facet normal 1 0 0
    outer loop
      vertex 1 17.5 51
      vertex 1 10.25 55
      vertex 1 15.5 51
    endloop
  endfacet
  facet normal 1 -0 0
    outer loop
      vertex 1 25.5 4
      vertex 1 27.1 0
      vertex 1 25.5 51
    endloop
  endfacet
  facet normal 1 -0 0
    outer loop
      vertex 1 23.5 4
      vertex 1 27.1 0
      vertex 1 25.5 4
    endloop
  endfacet
  facet normal 1 0 0
    outer loop
      vertex 1 21.5 4
      vertex 1 23.5 4
      vertex 1 21.5 51
    endloop
  endfacet
  facet normal 1 -0 0
    outer loop
      vertex 1 21.5 4
      vertex 1 27.1 0
      vertex 1 23.5 4
    endloop
  endfacet
  facet normal 1 -0 0
    outer loop
      vertex 1 19.5 4
      vertex 1 27.1 0
      vertex 1 21.5 4
    endloop
  endfacet
  facet normal 1 0 0
    outer loop
      vertex 1 17.5 4
      vertex 1 19.5 4
      vertex 1 17.5 51
    endloop
  endfacet
  facet normal 1 0 0
    outer loop
      vertex 1 10.25 0
      vertex 1 19.5 4
      vertex 1 17.5 4
    endloop
  endfacet
  facet normal 1 0 0
    outer loop
      vertex 1 10.25 0
      vertex 1 17.5 4
      vertex 1 15.5 4
    endloop
  endfacet
  facet normal 1 0 0
    outer loop
      vertex 1 19.5 4
      vertex 1 10.25 0
      vertex 1 27.1 0
    endloop
  endfacet
  facet normal 1 0 0
    outer loop
      vertex 1 10.25 0
      vertex 1 15.5 4
      vertex 1 10.25 55
    endloop
  endfacet
  facet normal 0 -1 0
    outer loop
      vertex -1 -27.1 0
      vertex 1 -27.1 55
      vertex -1 -27.1 55
    endloop
  endfacet
  facet normal 0 -1 -0
    outer loop
      vertex 1 -27.1 55
      vertex -1 -27.1 0
      vertex 1 -27.1 0
    endloop
  endfacet
  facet normal 0 1 -0
    outer loop
      vertex 1 27.1 0
      vertex -1 27.1 55
      vertex 1 27.1 55
    endloop
  endfacet
  facet normal 0 1 0
    outer loop
      vertex -1 27.1 55
      vertex 1 27.1 0
      vertex -1 27.1 0
    endloop
  endfacet
  facet normal 1 -0 0
    outer loop
      vertex 12 -1 51
      vertex 12 1 4
      vertex 12 1 51
    endloop
  endfacet
  facet normal 1 0 0
    outer loop
      vertex 12 1 4
      vertex 12 -1 51
      vertex 12 -1 4
    endloop
  endfacet
  facet normal 0 0 -1
    outer loop
      vertex 12 -1 51
      vertex 14 1 51
      vertex 14 -1 51
    endloop
  endfacet
  facet normal -0 0 -1
    outer loop
      vertex 14 1 51
      vertex 12 -1 51
      vertex 12 1 51
    endloop
  endfacet
  facet normal -1 0 0
    outer loop
      vertex 14 -1 4
      vertex 14 1 51
      vertex 14 1 4
    endloop
  endfacet
  facet normal -1 -0 0
    outer loop
      vertex 14 1 51
      vertex 14 -1 4
      vertex 14 -1 51
    endloop
  endfacet
  facet normal -0 0 1
    outer loop
      vertex 12 1 4
      vertex 14 -1 4
      vertex 14 1 4
    endloop
  endfacet
  facet normal 0 0 1
    outer loop
      vertex 14 -1 4
      vertex 12 1 4
      vertex 12 -1 4
    endloop
  endfacet
  facet normal 1 -0 0
    outer loop
      vertex -14 -1 51
      vertex -14 1 4
      vertex -14 1 51
    endloop
  endfacet
  facet normal 1 0 0
    outer loop
      vertex -14 1 4
      vertex -14 -1 51
      vertex -14 -1 4
    endloop
  endfacet
  facet normal 0 0 -1
    outer loop
      vertex -14 -1 51
      vertex -12 1 51
      vertex -12 -1 51
    endloop
  endfacet
  facet normal -0 0 -1
    outer loop
      vertex -12 1 51
      vertex -14 -1 51
      vertex -14 1 51
    endloop
  endfacet
  facet normal -1 0 0
    outer loop
      vertex -12 -1 4
      vertex -12 1 51
      vertex -12 1 4
    endloop
  endfacet
  facet normal -1 -0 0
    outer loop
      vertex -12 1 51
      vertex -12 -1 4
      vertex -12 -1 51
    endloop
  endfacet
  facet normal -0 0 1
    outer loop
      vertex -14 1 4
      vertex -12 -1 4
      vertex -12 1 4
    endloop
  endfacet
  facet normal 0 0 1
    outer loop
      vertex -12 -1 4
      vertex -14 1 4
      vertex -14 -1 4
    endloop
  endfacet
  facet normal 1 -0 0
    outer loop
      vertex 16 -1 51
      vertex 16 1 4
      vertex 16 1 51
    endloop
  endfacet
  facet normal 1 0 0
    outer loop
      vertex 16 1 4
      vertex 16 -1 51
      vertex 16 -1 4
    endloop
  endfacet
  facet normal 0 0 -1
    outer loop
      vertex 16 -1 51
      vertex 18 1 51
      vertex 18 -1 51
    endloop
  endfacet
  facet normal -0 0 -1
    outer loop
      vertex 18 1 51
      vertex 16 -1 51
      vertex 16 1 51
    endloop
  endfacet
  facet normal -1 0 0
    outer loop
      vertex 18 -1 4
      vertex 18 1 51
      vertex 18 1 4
    endloop
  endfacet
  facet normal -1 -0 0
    outer loop
      vertex 18 1 51
      vertex 18 -1 4
      vertex 18 -1 51
    endloop
  endfacet
  facet normal -0 0 1
    outer loop
      vertex 16 1 4
      vertex 18 -1 4
      vertex 18 1 4
    endloop
  endfacet
  facet normal 0 0 1
    outer loop
      vertex 18 -1 4
      vertex 16 1 4
      vertex 16 -1 4
    endloop
  endfacet
  facet normal 1 -0 0
    outer loop
      vertex -18 -1 51
      vertex -18 1 4
      vertex -18 1 51
    endloop
  endfacet
  facet normal 1 0 0
    outer loop
      vertex -18 1 4
      vertex -18 -1 51
      vertex -18 -1 4
    endloop
  endfacet
  facet normal 0 0 -1
    outer loop
      vertex -18 -1 51
      vertex -16 1 51
      vertex -16 -1 51
    endloop
  endfacet
  facet normal -0 0 -1
    outer loop
      vertex -16 1 51
      vertex -18 -1 51
      vertex -18 1 51
    endloop
  endfacet
  facet normal -1 0 0
    outer loop
      vertex -16 -1 4
      vertex -16 1 51
      vertex -16 1 4
    endloop
  endfacet
  facet normal -1 -0 0
    outer loop
      vertex -16 1 51
      vertex -16 -1 4
      vertex -16 -1 51
    endloop
  endfacet
  facet normal -0 0 1
    outer loop
      vertex -18 1 4
      vertex -16 -1 4
      vertex -16 1 4
    endloop
  endfacet
  facet normal 0 0 1
    outer loop
      vertex -16 -1 4
      vertex -18 1 4
      vertex -18 -1 4
    endloop
  endfacet
  facet normal 1 -0 0
    outer loop
      vertex 20 -1 51
      vertex 20 1 4
      vertex 20 1 51
    endloop
  endfacet
  facet normal 1 0 0
    outer loop
      vertex 20 1 4
      vertex 20 -1 51
      vertex 20 -1 4
    endloop
  endfacet
  facet normal 0 0 -1
    outer loop
      vertex 20 -1 51
      vertex 22 1 51
      vertex 22 -1 51
    endloop
  endfacet
  facet normal -0 0 -1
    outer loop
      vertex 22 1 51
      vertex 20 -1 51
      vertex 20 1 51
    endloop
  endfacet
  facet normal -1 0 0
    outer loop
      vertex 22 -1 4
      vertex 22 1 51
      vertex 22 1 4
    endloop
  endfacet
  facet normal -1 -0 0
    outer loop
      vertex 22 1 51
      vertex 22 -1 4
      vertex 22 -1 51
    endloop
  endfacet
  facet normal -0 0 1
    outer loop
      vertex 20 1 4
      vertex 22 -1 4
      vertex 22 1 4
    endloop
  endfacet
  facet normal 0 0 1
    outer loop
      vertex 22 -1 4
      vertex 20 1 4
      vertex 20 -1 4
    endloop
  endfacet
  facet normal 1 -0 0
    outer loop
      vertex -22 -1 51
      vertex -22 1 4
      vertex -22 1 51
    endloop
  endfacet
  facet normal 1 0 0
    outer loop
      vertex -22 1 4
      vertex -22 -1 51
      vertex -22 -1 4
    endloop
  endfacet
  facet normal 0 0 -1
    outer loop
      vertex -22 -1 51
      vertex -20 1 51
      vertex -20 -1 51
    endloop
  endfacet
  facet normal -0 0 -1
    outer loop
      vertex -20 1 51
      vertex -22 -1 51
      vertex -22 1 51
    endloop
  endfacet
  facet normal -1 0 0
    outer loop
      vertex -20 -1 4
      vertex -20 1 51
      vertex -20 1 4
    endloop
  endfacet
  facet normal -1 -0 0
    outer loop
      vertex -20 1 51
      vertex -20 -1 4
      vertex -20 -1 51
    endloop
  endfacet
  facet normal -0 0 1
    outer loop
      vertex -22 1 4
      vertex -20 -1 4
      vertex -20 1 4
    endloop
  endfacet
  facet normal 0 0 1
    outer loop
      vertex -20 -1 4
      vertex -22 1 4
      vertex -22 -1 4
    endloop
  endfacet
  facet normal 1 -0 0
    outer loop
      vertex 24 -1 51
      vertex 24 1 4
      vertex 24 1 51
    endloop
  endfacet
  facet normal 1 0 0
    outer loop
      vertex 24 1 4
      vertex 24 -1 51
      vertex 24 -1 4
    endloop
  endfacet
  facet normal 0 0 -1
    outer loop
      vertex 24 -1 51
      vertex 26 1 51
      vertex 26 -1 51
    endloop
  endfacet
  facet normal -0 0 -1
    outer loop
      vertex 26 1 51
      vertex 24 -1 51
      vertex 24 1 51
    endloop
  endfacet
  facet normal -1 0 0
    outer loop
      vertex 26 -1 4
      vertex 26 1 51
      vertex 26 1 4
    endloop
  endfacet
  facet normal -1 -0 0
    outer loop
      vertex 26 1 51
      vertex 26 -1 4
      vertex 26 -1 51
    endloop
  endfacet
  facet normal -0 0 1
    outer loop
      vertex 24 1 4
      vertex 26 -1 4
      vertex 26 1 4
    endloop
  endfacet
  facet normal 0 0 1
    outer loop
      vertex 26 -1 4
      vertex 24 1 4
      vertex 24 -1 4
    endloop
  endfacet
  facet normal 1 -0 0
    outer loop
      vertex -26 -1 51
      vertex -26 1 4
      vertex -26 1 51
    endloop
  endfacet
  facet normal 1 0 0
    outer loop
      vertex -26 1 4
      vertex -26 -1 51
      vertex -26 -1 4
    endloop
  endfacet
  facet normal 0 0 -1
    outer loop
      vertex -26 -1 51
      vertex -24 1 51
      vertex -24 -1 51
    endloop
  endfacet
  facet normal -0 0 -1
    outer loop
      vertex -24 1 51
      vertex -26 -1 51
      vertex -26 1 51
    endloop
  endfacet
  facet normal -1 0 0
    outer loop
      vertex -24 -1 4
      vertex -24 1 51
      vertex -24 1 4
    endloop
  endfacet
  facet normal -1 -0 0
    outer loop
      vertex -24 1 51
      vertex -24 -1 4
      vertex -24 -1 51
    endloop
  endfacet
  facet normal -0 0 1
    outer loop
      vertex -26 1 4
      vertex -24 -1 4
      vertex -24 1 4
    endloop
  endfacet
  facet normal 0 0 1
    outer loop
      vertex -24 -1 4
      vertex -26 1 4
      vertex -26 -1 4
    endloop
  endfacet
  facet normal 0 0 -1
    outer loop
      vertex -1 15.5 51
      vertex 1 17.5 51
      vertex 1 15.5 51
    endloop
  endfacet
  facet normal -0 0 -1
    outer loop
      vertex 1 17.5 51
      vertex -1 15.5 51
      vertex -1 17.5 51
    endloop
  endfacet
  facet normal 0 -1 0
    outer loop
      vertex -1 17.5 4
      vertex 1 17.5 51
      vertex -1 17.5 51
    endloop
  endfacet
  facet normal 0 -1 -0
    outer loop
      vertex 1 17.5 51
      vertex -1 17.5 4
      vertex 1 17.5 4
    endloop
  endfacet
  facet normal -0 0 1
    outer loop
      vertex -1 17.5 4
      vertex 1 15.5 4
      vertex 1 17.5 4
    endloop
  endfacet
  facet normal 0 0 1
    outer loop
      vertex 1 15.5 4
      vertex -1 17.5 4
      vertex -1 15.5 4
    endloop
  endfacet
  facet normal 0 1 -0
    outer loop
      vertex 1 15.5 4
      vertex -1 15.5 51
      vertex 1 15.5 51
    endloop
  endfacet
  facet normal 0 1 0
    outer loop
      vertex -1 15.5 51
      vertex 1 15.5 4
      vertex -1 15.5 4
    endloop
  endfacet
  facet normal 0 0 -1
    outer loop
      vertex -1 -17.5 51
      vertex 1 -15.5 51
      vertex 1 -17.5 51
    endloop
  endfacet
  facet normal -0 0 -1
    outer loop
      vertex 1 -15.5 51
      vertex -1 -17.5 51
      vertex -1 -15.5 51
    endloop
  endfacet
  facet normal 0 -1 0
    outer loop
      vertex -1 -15.5 4
      vertex 1 -15.5 51
      vertex -1 -15.5 51
    endloop
  endfacet
  facet normal 0 -1 -0
    outer loop
      vertex 1 -15.5 51
      vertex -1 -15.5 4
      vertex 1 -15.5 4
    endloop
  endfacet
  facet normal -0 0 1
    outer loop
      vertex -1 -15.5 4
      vertex 1 -17.5 4
      vertex 1 -15.5 4
    endloop
  endfacet
  facet normal 0 0 1
    outer loop
      vertex 1 -17.5 4
      vertex -1 -15.5 4
      vertex -1 -17.5 4
    endloop
  endfacet
  facet normal 0 1 -0
    outer loop
      vertex 1 -17.5 4
      vertex -1 -17.5 51
      vertex 1 -17.5 51
    endloop
  endfacet
  facet normal 0 1 0
    outer loop
      vertex -1 -17.5 51
      vertex 1 -17.5 4
      vertex -1 -17.5 4
    endloop
  endfacet
  facet normal 0 0 -1
    outer loop
      vertex -1 19.5 51
      vertex 1 21.5 51
      vertex 1 19.5 51
    endloop
  endfacet
  facet normal -0 0 -1
    outer loop
      vertex 1 21.5 51
      vertex -1 19.5 51
      vertex -1 21.5 51
    endloop
  endfacet
  facet normal -0 0 1
    outer loop
      vertex -1 21.5 4
      vertex 1 19.5 4
      vertex 1 21.5 4
    endloop
  endfacet
  facet normal 0 0 1
    outer loop
      vertex 1 19.5 4
      vertex -1 21.5 4
      vertex -1 19.5 4
    endloop
  endfacet
  facet normal 0 1 -0
    outer loop
      vertex 1 19.5 4
      vertex -1 19.5 51
      vertex 1 19.5 51
    endloop
  endfacet
  facet normal 0 1 0
    outer loop
      vertex -1 19.5 51
      vertex 1 19.5 4
      vertex -1 19.5 4
    endloop
  endfacet
  facet normal 0 -1 0
    outer loop
      vertex -1 21.5 4
      vertex 1 21.5 51
      vertex -1 21.5 51
    endloop
  endfacet
  facet normal 0 -1 -0
    outer loop
      vertex 1 21.5 51
      vertex -1 21.5 4
      vertex 1 21.5 4
    endloop
  endfacet
  facet normal 0 0 -1
    outer loop
      vertex -1 -21.5 51
      vertex 1 -19.5 51
      vertex 1 -21.5 51
    endloop
  endfacet
  facet normal -0 0 -1
    outer loop
      vertex 1 -19.5 51
      vertex -1 -21.5 51
      vertex -1 -19.5 51
    endloop
  endfacet
  facet normal 0 -1 0
    outer loop
      vertex -1 -19.5 4
      vertex 1 -19.5 51
      vertex -1 -19.5 51
    endloop
  endfacet
  facet normal 0 -1 -0
    outer loop
      vertex 1 -19.5 51
      vertex -1 -19.5 4
      vertex 1 -19.5 4
    endloop
  endfacet
  facet normal -0 0 1
    outer loop
      vertex -1 -19.5 4
      vertex 1 -21.5 4
      vertex 1 -19.5 4
    endloop
  endfacet
  facet normal 0 0 1
    outer loop
      vertex 1 -21.5 4
      vertex -1 -19.5 4
      vertex -1 -21.5 4
    endloop
  endfacet
  facet normal 0 1 -0
    outer loop
      vertex 1 -21.5 4
      vertex -1 -21.5 51
      vertex 1 -21.5 51
    endloop
  endfacet
  facet normal 0 1 0
    outer loop
      vertex -1 -21.5 51
      vertex 1 -21.5 4
      vertex -1 -21.5 4
    endloop
  endfacet
  facet normal 0 0 -1
    outer loop
      vertex -1 23.5 51
      vertex 1 25.5 51
      vertex 1 23.5 51
    endloop
  endfacet
  facet normal -0 0 -1
    outer loop
      vertex 1 25.5 51
      vertex -1 23.5 51
      vertex -1 25.5 51
    endloop
  endfacet
  facet normal 0 -1 0
    outer loop
      vertex -1 25.5 4
      vertex 1 25.5 51
      vertex -1 25.5 51
    endloop
  endfacet
  facet normal 0 -1 -0
    outer loop
      vertex 1 25.5 51
      vertex -1 25.5 4
      vertex 1 25.5 4
    endloop
  endfacet
  facet normal -0 0 1
    outer loop
      vertex -1 25.5 4
      vertex 1 23.5 4
      vertex 1 25.5 4
    endloop
  endfacet
  facet normal 0 0 1
    outer loop
      vertex 1 23.5 4
      vertex -1 25.5 4
      vertex -1 23.5 4
    endloop
  endfacet
  facet normal 0 1 -0
    outer loop
      vertex 1 23.5 4
      vertex -1 23.5 51
      vertex 1 23.5 51
    endloop
  endfacet
  facet normal 0 1 0
    outer loop
      vertex -1 23.5 51
      vertex 1 23.5 4
      vertex -1 23.5 4
    endloop
  endfacet
  facet normal 0 0 -1
    outer loop
      vertex -1 -25.5 51
      vertex 1 -23.5 51
      vertex 1 -25.5 51
    endloop
  endfacet
  facet normal -0 0 -1
    outer loop
      vertex 1 -23.5 51
      vertex -1 -25.5 51
      vertex -1 -23.5 51
    endloop
  endfacet
  facet normal 0 -1 0
    outer loop
      vertex -1 -23.5 4
      vertex 1 -23.5 51
      vertex -1 -23.5 51
    endloop
  endfacet
  facet normal 0 -1 -0
    outer loop
      vertex 1 -23.5 51
      vertex -1 -23.5 4
      vertex 1 -23.5 4
    endloop
  endfacet
  facet normal -0 0 1
    outer loop
      vertex -1 -23.5 4
      vertex 1 -25.5 4
      vertex 1 -23.5 4
    endloop
  endfacet
  facet normal 0 0 1
    outer loop
      vertex 1 -25.5 4
      vertex -1 -23.5 4
      vertex -1 -25.5 4
    endloop
  endfacet
  facet normal 0 1 -0
    outer loop
      vertex 1 -25.5 4
      vertex -1 -25.5 51
      vertex 1 -25.5 51
    endloop
  endfacet
  facet normal 0 1 0
    outer loop
      vertex -1 -25.5 51
      vertex 1 -25.5 4
      vertex -1 -25.5 4
    endloop
  endfacet
  facet normal -1 0 0
    outer loop
      vertex 92.5 -9.25 0
      vertex 92.5 9.25 10
      vertex 92.5 9.25 0
    endloop
  endfacet
  facet normal -1 -0 0
    outer loop
      vertex 92.5 9.25 10
      vertex 92.5 -9.25 0
      vertex 92.5 -9.25 10
    endloop
  endfacet
  facet normal 0 0 -1
    outer loop
      vertex 112 -12 10
      vertex 107.5 -9.25 10
      vertex 112 12 10
    endloop
  endfacet
  facet normal 0 0 -1
    outer loop
      vertex 112 -12 10
      vertex 92.5 -9.25 10
      vertex 107.5 -9.25 10
    endloop
  endfacet
  facet normal -0 0 -1
    outer loop
      vertex 92.5 -9.25 10
      vertex 88 -12 10
      vertex 92.5 9.25 10
    endloop
  endfacet
  facet normal 0 0 -1
    outer loop
      vertex 88 -12 10
      vertex 92.5 -9.25 10
      vertex 112 -12 10
    endloop
  endfacet
  facet normal 0 0 -1
    outer loop
      vertex 107.5 9.25 10
      vertex 112 12 10
      vertex 107.5 -9.25 10
    endloop
  endfacet
  facet normal 0 0 -1
    outer loop
      vertex 92.5 9.25 10
      vertex 112 12 10
      vertex 107.5 9.25 10
    endloop
  endfacet
  facet normal 0 0 -1
    outer loop
      vertex 92.5 9.25 10
      vertex 88 12 10
      vertex 112 12 10
    endloop
  endfacet
  facet normal 0 0 -1
    outer loop
      vertex 88 12 10
      vertex 92.5 9.25 10
      vertex 88 -12 10
    endloop
  endfacet
  facet normal 0 0 -1
    outer loop
      vertex 93.5 -8.25 10
      vertex 106.5 8.25 10
      vertex 106.5 -8.25 10
    endloop
  endfacet
  facet normal -0 0 -1
    outer loop
      vertex 106.5 8.25 10
      vertex 93.5 -8.25 10
      vertex 93.5 8.25 10
    endloop
  endfacet
  facet normal 1 -0 0
    outer loop
      vertex 107.5 -9.25 10
      vertex 107.5 9.25 0
      vertex 107.5 9.25 10
    endloop
  endfacet
  facet normal 1 0 0
    outer loop
      vertex 107.5 9.25 0
      vertex 107.5 -9.25 10
      vertex 107.5 -9.25 0
    endloop
  endfacet
  facet normal 0 0 -1
    outer loop
      vertex 107.5 -9.25 0
      vertex 106.5 -8.25 0
      vertex 107.5 9.25 0
    endloop
  endfacet
  facet normal 0 0 -1
    outer loop
      vertex 107.5 -9.25 0
      vertex 93.5 -8.25 0
      vertex 106.5 -8.25 0
    endloop
  endfacet
  facet normal -0 0 -1
    outer loop
      vertex 93.5 -8.25 0
      vertex 92.5 -9.25 0
      vertex 93.5 8.25 0
    endloop
  endfacet
  facet normal 0 0 -1
    outer loop
      vertex 92.5 -9.25 0
      vertex 93.5 -8.25 0
      vertex 107.5 -9.25 0
    endloop
  endfacet
  facet normal 0 0 -1
    outer loop
      vertex 106.5 8.25 0
      vertex 107.5 9.25 0
      vertex 106.5 -8.25 0
    endloop
  endfacet
  facet normal 0 0 -1
    outer loop
      vertex 93.5 8.25 0
      vertex 107.5 9.25 0
      vertex 106.5 8.25 0
    endloop
  endfacet
  facet normal 0 0 -1
    outer loop
      vertex 93.5 8.25 0
      vertex 92.5 9.25 0
      vertex 107.5 9.25 0
    endloop
  endfacet
  facet normal 0 0 -1
    outer loop
      vertex 92.5 9.25 0
      vertex 93.5 8.25 0
      vertex 92.5 -9.25 0
    endloop
  endfacet
  facet normal 0 -1 0
    outer loop
      vertex 92.5 -9.25 0
      vertex 107.5 -9.25 10
      vertex 92.5 -9.25 10
    endloop
  endfacet
  facet normal 0 -1 -0
    outer loop
      vertex 107.5 -9.25 10
      vertex 92.5 -9.25 0
      vertex 107.5 -9.25 0
    endloop
  endfacet
  facet normal 0 1 -0
    outer loop
      vertex 107.5 9.25 0
      vertex 92.5 9.25 10
      vertex 107.5 9.25 10
    endloop
  endfacet
  facet normal 0 1 0
    outer loop
      vertex 92.5 9.25 10
      vertex 107.5 9.25 0
      vertex 92.5 9.25 0
    endloop
  endfacet
  facet normal 1 -0 0
    outer loop
      vertex 93.5 -8.25 10
      vertex 93.5 8.25 0
      vertex 93.5 8.25 10
    endloop
  endfacet
  facet normal 1 0 0
    outer loop
      vertex 93.5 8.25 0
      vertex 93.5 -8.25 10
      vertex 93.5 -8.25 0
    endloop
  endfacet
  facet normal -1 0 0
    outer loop
      vertex 106.5 -8.25 0
      vertex 106.5 8.25 10
      vertex 106.5 8.25 0
    endloop
  endfacet
  facet normal -1 -0 0
    outer loop
      vertex 106.5 8.25 10
      vertex 106.5 -8.25 0
      vertex 106.5 -8.25 10
    endloop
  endfacet
  facet normal 0 1 -0
    outer loop
      vertex 106.5 -8.25 0
      vertex 93.5 -8.25 10
      vertex 106.5 -8.25 10
    endloop
  endfacet
  facet normal 0 1 0
    outer loop
      vertex 93.5 -8.25 10
      vertex 106.5 -8.25 0
      vertex 93.5 -8.25 0
    endloop
  endfacet
  facet normal 0 -1 0
    outer loop
      vertex 93.5 8.25 0
      vertex 106.5 8.25 10
      vertex 93.5 8.25 10
    endloop
  endfacet
  facet normal 0 -1 -0
    outer loop
      vertex 106.5 8.25 10
      vertex 93.5 8.25 0
      vertex 106.5 8.25 0
    endloop
  endfacet
  facet normal -1 0 0
    outer loop
      vertex 88 -12 10
      vertex 88 12 50
      vertex 88 12 10
    endloop
  endfacet
  facet normal -1 -0 0
    outer loop
      vertex 88 12 50
      vertex 88 -12 10
      vertex 88 -12 50
    endloop
  endfacet
  facet normal 0 0 1
    outer loop
      vertex 112 12 50
      vertex 111 11 50
      vertex 112 -12 50
    endloop
  endfacet
  facet normal 0 0 1
    outer loop
      vertex 112 12 50
      vertex 89 11 50
      vertex 111 11 50
    endloop
  endfacet
  facet normal 0 0 1
    outer loop
      vertex 89 11 50
      vertex 88 12 50
      vertex 89 -11 50
    endloop
  endfacet
  facet normal -0 0 1
    outer loop
      vertex 88 12 50
      vertex 89 11 50
      vertex 112 12 50
    endloop
  endfacet
  facet normal -0 0 1
    outer loop
      vertex 111 -11 50
      vertex 112 -12 50
      vertex 111 11 50
    endloop
  endfacet
  facet normal -0 0 1
    outer loop
      vertex 89 -11 50
      vertex 112 -12 50
      vertex 111 -11 50
    endloop
  endfacet
  facet normal 0 0 1
    outer loop
      vertex 89 -11 50
      vertex 88 -12 50
      vertex 112 -12 50
    endloop
  endfacet
  facet normal 0 0 1
    outer loop
      vertex 88 -12 50
      vertex 89 -11 50
      vertex 88 12 50
    endloop
  endfacet
  facet normal 1 -0 0
    outer loop
      vertex 112 -12 50
      vertex 112 12 10
      vertex 112 12 50
    endloop
  endfacet
  facet normal 1 0 0
    outer loop
      vertex 112 12 10
      vertex 112 -12 50
      vertex 112 -12 10
    endloop
  endfacet
  facet normal 0 -1 0
    outer loop
      vertex 88 -12 10
      vertex 112 -12 50
      vertex 88 -12 50
    endloop
  endfacet
  facet normal 0 -1 -0
    outer loop
      vertex 112 -12 50
      vertex 88 -12 10
      vertex 112 -12 10
    endloop
  endfacet
  facet normal 0 1 -0
    outer loop
      vertex 112 12 10
      vertex 88 12 50
      vertex 112 12 50
    endloop
  endfacet
  facet normal 0 1 0
    outer loop
      vertex 88 12 50
      vertex 112 12 10
      vertex 88 12 10
    endloop
  endfacet
  facet normal 1 -0 0
    outer loop
      vertex 89 -11 50
      vertex 89 11 10.5
      vertex 89 11 50
    endloop
  endfacet
  facet normal 1 0 0
    outer loop
      vertex 89 11 10.5
      vertex 89 -11 50
      vertex 89 -11 10.5
    endloop
  endfacet
  facet normal -1 0 0
    outer loop
      vertex 111 -11 10.5
      vertex 111 11 50
      vertex 111 11 10.5
    endloop
  endfacet
  facet normal -1 -0 0
    outer loop
      vertex 111 11 50
      vertex 111 -11 10.5
      vertex 111 -11 50
    endloop
  endfacet
  facet normal -0 0 1
    outer loop
      vertex 89 11 10.5
      vertex 111 -11 10.5
      vertex 111 11 10.5
    endloop
  endfacet
  facet normal 0 0 1
    outer loop
      vertex 111 -11 10.5
      vertex 89 11 10.5
      vertex 89 -11 10.5
    endloop
  endfacet
  facet normal 0 1 -0
    outer loop
      vertex 111 -11 10.5
      vertex 89 -11 50
      vertex 111 -11 50
    endloop
  endfacet
  facet normal 0 1 0
    outer loop
      vertex 89 -11 50
      vertex 111 -11 10.5
      vertex 89 -11 10.5
    endloop
  endfacet
  facet normal 0 -1 0
    outer loop
      vertex 89 11 10.5
      vertex 111 11 50
      vertex 89 11 50
    endloop
  endfacet
  facet normal 0 -1 -0
    outer loop
      vertex 111 11 50
      vertex 89 11 10.5
      vertex 111 11 10.5
    endloop
  endfacet
endsolid OpenSCAD_Model
