M48
;GenerationSoftware,Autodesk,EAGLE,9.6.0*%
;CreationDate,2020-03-23T05:22:22Z*%
FMAT,2
ICI,OFF
METRIC,TZ,000.000
T5C0.813
T4C0.900
T3C1.000
T2C1.016
%
G90
M71
T2
X25400Y68580
X22860Y68580
X20320Y68580
X17780Y68580
X15240Y68580
X12700Y68580
X10160Y68580
X7620Y68580
T3
X8890Y97790
X8890Y85090
X8890Y100330
X8890Y102870
X8890Y105410
X8890Y110490
X24130Y74930
X24130Y77470
X24130Y80010
X8890Y95250
X8890Y92710
X8890Y90170
X8890Y87630
X24130Y90170
X8890Y82550
X8890Y80010
X8890Y77470
X8890Y74930
X24130Y102870
X1270Y74500
X24130Y110490
X24130Y107950
X24130Y105410
X24130Y82550
X24130Y100330
X24130Y97790
X24130Y95250
X24130Y92710
X1270Y78000
X24130Y87630
X24130Y85090
T4
X8890Y107950
T5
X2540Y100330
X2540Y97790
X1270Y87630
X3810Y87630
M30